<?xml version="1.0" encoding="utf-8"?>
<!-- Generator: Adobe Illustrator 19.1.1, SVG Export Plug-In . SVG Version: 6.00 Build 0)  -->
<svg version="1.1" id="Layer_1" xmlns="http://www.w3.org/2000/svg" xmlns:xlink="http://www.w3.org/1999/xlink" x="0px" y="0px"
	 viewBox="654 -15.2 1920 822.2" style="enable-background:new 654 -15.2 1920 822.2;" xml:space="preserve">
<style type="text/css">
	.st0{fill:#EFF3F4;}
	.st1{display:none;fill:#EFF3F4;}
</style>
<g>
	<path class="st0" d="M1079.1,751.9c-23.5-24.2-60.1-31.6-92.6-28.1c-17.1,1.8-28.6,8.3-46.7,3.1c-11.4-3.2-21.7-9.3-30.2-17.5
		c-8.8-8.9-10.2-20.8-18-30.7c-15.2-19.4-39.6-24-62.8-21.1c-21.2,2.5-32.7,8.8-52-4.3c-24.4-16.6-24.9-40.7-36.9-64.8
		c-9.7-19.4-21.9-36.2-40.9-47.6c-14-8.3-29.1-14.3-45-17.8l0-13.9h0v297.8h512.7v0C1125.9,805.4,1104.9,778.5,1079.1,751.9z"/>
	<path class="st1" d="M654-15.2l0,524.3h512.6v297.8c1.2,0,2.4,0.1,3.6,0.1H2574V-15.2H654z"/>
	<path class="st1" d="M654,509.1l0,13.9c15.8,3.5,31,9.5,45,17.8c19,11.4,31.2,28.2,40.9,47.6c12.1,24.1,12.5,48.2,36.9,64.8
		c19.3,13.1,30.8,6.9,52,4.3c23.2-3,47.6,1.7,62.8,21.1c7.8,9.9,9.1,21.8,18,30.7c8.4,8.3,18.8,14.3,30.2,17.5
		c18,5.2,29.6-1.3,46.7-3.1c32.6-3.5,69.1,3.9,92.6,28.1c25.9,26.6,46.8,53.5,87.6,55V509.1H654z"/>
</g>
</svg>
