<svg xmlns="http://www.w3.org/2000/svg" xmlns:xlink="http://www.w3.org/1999/xlink" width="126.485" height="147.679" viewBox="0 0 126.485 147.679">
  <defs>
    <linearGradient id="linear-gradient" x1="0.835" y1="1.197" x2="0.165" y2="0.399" gradientUnits="objectBoundingBox">
      <stop offset="0.446" stop-color="#ff0"/>
      <stop offset="0.733" stop-color="#ffe700"/>
      <stop offset="0.841" stop-color="#ff8900"/>
    </linearGradient>
    <linearGradient id="linear-gradient-2" x1="1.02" y1="0.98" x2="0.181" y2="0.134" xlink:href="#linear-gradient"/>
  </defs>
  <g id="Group_17075" data-name="Group 17075" transform="translate(-34.038 -35.04)">
    <g id="Layer_4" data-name="Layer 4" transform="translate(39.125 35.04)">
      <g id="Group_17075-2" data-name="Group 17075">
        <path id="Path_10895" data-name="Path 10895" d="M97.185,35.04,39.029,132.633,97.185,96.555l58.156,36.078Z" transform="translate(-39.029 -35.04)" fill="url(#linear-gradient)"/>
        <path id="Path_10896" data-name="Path 10896" d="M115.48,66.727,88.612,87.357l65.78,44.67Z" transform="translate(-38.081 -34.434)" fill="url(#linear-gradient-2)"/>
        <path id="Path_10897" data-name="Path 10897" d="M97.185,35.04,39.029,132.633,97.185,96.555l58.156,36.078L129.286,88.912,110.6,81.947l8.945-9.375-5.978-10.034L82,81.608,105.621,49.2Z" transform="translate(-39.029 -35.04)" fill="#cc1e2c"/>
      </g>
    </g>
    <g id="CREATIVE" transform="translate(37.59 139.85)">
      <path id="CREATIVE-2" data-name="CREATIVE" d="M106.194,20.367a1.018,1.018,0,0,1-1.014-1.018V1.019a.983.983,0,0,1,.3-.719.976.976,0,0,1,.716-.3h12.171a.981.981,0,0,1,.717.3.987.987,0,0,1,.3.719.983.983,0,0,1-.3.719.973.973,0,0,1-.717.3H107.208V9.165h8.114a.971.971,0,0,1,.715.3,1.015,1.015,0,0,1,0,1.439.966.966,0,0,1-.715.3h-8.114v7.13h11.156a1.019,1.019,0,0,1,1.015,1.018,1.019,1.019,0,0,1-1.015,1.018Zm-11.867-.306a.823.823,0,0,1-.215-.33L87.05,1.592a1.442,1.442,0,0,1-.127-.573.984.984,0,0,1,.3-.719.976.976,0,0,1,.716-.3.927.927,0,0,1,.925.586l6.175,15.949L101.211.586A.927.927,0,0,1,102.137,0a.981.981,0,0,1,.716.3.983.983,0,0,1,.3.719,1.44,1.44,0,0,1-.126.573L95.962,19.73a.912.912,0,0,1-.2.33.986.986,0,0,1-.723.306A.94.94,0,0,1,94.327,20.061Zm-12.178.007a.989.989,0,0,1-.3-.719V1.019a.987.987,0,0,1,.3-.719,1.007,1.007,0,0,1,1.434,0,.983.983,0,0,1,.3.719v18.33a1.012,1.012,0,0,1-1.731.719Zm-11.663,0a.986.986,0,0,1-.3-.719V2.037H64.609a.97.97,0,0,1-.716-.3.983.983,0,0,1-.3-.719.987.987,0,0,1,.3-.719.978.978,0,0,1,.716-.3H77.8a.979.979,0,0,1,.716.3.986.986,0,0,1,.3.719.982.982,0,0,1-.3.719.971.971,0,0,1-.716.3H72.216V19.349a.982.982,0,0,1-.3.719,1.006,1.006,0,0,1-1.432,0Zm-5.776.006a1.066,1.066,0,0,1-.228-.332l-2.522-6.5H54.682l-2.522,6.5a1.162,1.162,0,0,1-.216.332,1.008,1.008,0,0,1-.722.293.974.974,0,0,1-.716-.3.985.985,0,0,1-.3-.719,1.011,1.011,0,0,1,.089-.434L57.344.714a1.093,1.093,0,0,1,.267-.42A.97.97,0,0,1,58.322,0a1.006,1.006,0,0,1,.721.294,1.129,1.129,0,0,1,.255.42l7.05,18.2a1.038,1.038,0,0,1,.087.434,1.019,1.019,0,0,1-1.014,1.018A.969.969,0,0,1,64.71,20.074ZM55.468,11.2h5.705L58.322,3.832ZM34.992,20.367a.975.975,0,0,1-.715-.3.985.985,0,0,1-.3-.719V1.019a.984.984,0,0,1,.3-.719.976.976,0,0,1,.715-.3H47.164a.975.975,0,0,1,.716.3.984.984,0,0,1,.3.719.979.979,0,0,1-.3.719.967.967,0,0,1-.716.3H36.006V9.165h8.115a1.018,1.018,0,0,1,0,2.036H36.006v7.13H47.164a.967.967,0,0,1,.716.3,1.018,1.018,0,0,1-.716,1.737Zm-4.944-.522-4.754-7.638c-.144.009-.292.014-.444.014H20.792v7.128a.988.988,0,0,1-.3.719,1.014,1.014,0,0,1-1.731-.719V1.019a.984.984,0,0,1,.3-.719.976.976,0,0,1,.716-.3H24.85a5.854,5.854,0,0,1,4.3,1.789,5.9,5.9,0,0,1,1.78,4.321,5.89,5.89,0,0,1-1.774,4.316,5.982,5.982,0,0,1-1.788,1.259l4.412,7.1a.97.97,0,0,1,.165.56,1.019,1.019,0,0,1-1.015,1.018A1.025,1.025,0,0,1,30.048,19.845Zm-9.256-9.662H24.85a3.906,3.906,0,0,0,2.872-1.19A3.937,3.937,0,0,0,28.907,6.11a3.936,3.936,0,0,0-1.185-2.882A3.907,3.907,0,0,0,24.85,2.037H20.792Zm-17.82,7.2A9.831,9.831,0,0,1,0,10.183a9.833,9.833,0,0,1,2.973-7.2A9.757,9.757,0,0,1,10.144,0,9.875,9.875,0,0,1,16.6,2.33a1.015,1.015,0,0,1,.292.726.98.98,0,0,1-.3.719.969.969,0,0,1-.715.3.983.983,0,0,1-.723-.3,7.73,7.73,0,0,0-5.008-1.732A7.8,7.8,0,0,0,4.406,4.425,7.858,7.858,0,0,0,2.03,10.183a7.863,7.863,0,0,0,2.377,5.76,7.8,7.8,0,0,0,5.737,2.388,7.743,7.743,0,0,0,5.071-1.783.987.987,0,0,1,.583-.178A1.018,1.018,0,0,1,16.52,18.1a9.939,9.939,0,0,1-6.377,2.266A9.754,9.754,0,0,1,2.973,17.381Z" fill="#cc1e2c"/>
    </g>
    <g id="FRONTIERS" transform="translate(34.038 168.386)">
      <g id="Group_17076" data-name="Group 17076">
        <path id="FRONTIERS-2" data-name="FRONTIERS" d="M118.937,12.81a3.574,3.574,0,0,1-.339-.439.7.7,0,0,1-.142-.43.717.717,0,0,1,.713-.716.7.7,0,0,1,.608.331,1.964,1.964,0,0,0,.249.323,2.727,2.727,0,0,0,1.945,1.013,2.869,2.869,0,0,0,3.078-2.624,2.79,2.79,0,0,0-.66-2.1,4.062,4.062,0,0,0-2.06-1.111,4.485,4.485,0,0,1-2.321-1.137,3.484,3.484,0,0,1-.839-2.616A3.468,3.468,0,0,1,120.418.87,3.446,3.446,0,0,1,122.737,0a3.554,3.554,0,0,1,2.712,1.281,3.862,3.862,0,0,1,.349.484.725.725,0,0,1-.1.892.693.693,0,0,1-.505.21.588.588,0,0,1-.5-.215c-.105-.144-.216-.29-.328-.439a2.142,2.142,0,0,0-3.765,1.21A2.072,2.072,0,0,0,121.1,4.99a3.46,3.46,0,0,0,1.535.734,5.107,5.107,0,0,1,2.838,1.524,4.119,4.119,0,0,1,1.008,2.721c0,.138-.006.275-.018.413a4.123,4.123,0,0,1-1.49,2.92,4.1,4.1,0,0,1-2.739,1.03A4.311,4.311,0,0,1,118.937,12.81Zm-6.9,1.155L108.69,8.591c-.1.006-.206.009-.313.009h-2.854v5.016a.714.714,0,1,1-1.428,0V.717A.7.7,0,0,1,104.3.21a.694.694,0,0,1,.5-.21h3.569a4.114,4.114,0,0,1,3.029,1.26A4.149,4.149,0,0,1,112.66,4.3a4.148,4.148,0,0,1-1.248,3.036,4.23,4.23,0,0,1-1.258.888l3.1,5a.678.678,0,0,1,.117.394.717.717,0,0,1-.715.716A.721.721,0,0,1,112.035,13.965Zm-6.512-6.8h2.854a2.747,2.747,0,0,0,2.021-.837,2.765,2.765,0,0,0,.834-2.029,2.766,2.766,0,0,0-.834-2.028,2.748,2.748,0,0,0-2.021-.838h-2.854Zm-15.79,7.166a.717.717,0,0,1-.714-.716V.717a.7.7,0,0,1,.21-.507.692.692,0,0,1,.5-.21H98.3a.694.694,0,0,1,.5.21.7.7,0,0,1,.209.507.691.691,0,0,1-.209.506.687.687,0,0,1-.5.21H90.447V6.45h5.711a.717.717,0,0,1,0,1.434H90.447V12.9H98.3a.717.717,0,0,1,0,1.434Zm-7.727-.21a.7.7,0,0,1-.209-.506V.717A.7.7,0,0,1,82.006.21a.711.711,0,0,1,1.009,0,.7.7,0,0,1,.21.507v12.9a.713.713,0,0,1-1.219.506Zm-11.862,0a.69.69,0,0,1-.209-.506V1.434H66.009a.687.687,0,0,1-.5-.21A.688.688,0,0,1,65.3.717.694.694,0,0,1,65.5.21a.694.694,0,0,1,.5-.21h9.279a.694.694,0,0,1,.5.21A.7.7,0,0,1,76,.717a.7.7,0,0,1-.209.506.687.687,0,0,1-.5.21H71.362V13.616a.713.713,0,0,1-1.218.506ZM58.964,14.1,50.22,2.813v10.8a.713.713,0,1,1-1.426,0V.717A.7.7,0,0,1,49,.21a.694.694,0,0,1,.5-.21.719.719,0,0,1,.554.26l8.726,11.268V.717A.7.7,0,0,1,58.995.21.711.711,0,0,1,60,.21a.7.7,0,0,1,.209.507v12.9a.716.716,0,0,1-.714.716A.71.71,0,0,1,58.964,14.1ZM31.528,12.232a6.917,6.917,0,0,1-2.092-5.066A6.912,6.912,0,0,1,31.528,2.1a7.105,7.105,0,0,1,10.09,0,6.909,6.909,0,0,1,2.093,5.064,6.915,6.915,0,0,1-2.093,5.066,7.109,7.109,0,0,1-10.09,0Zm1.008-9.119a5.539,5.539,0,0,0-1.672,4.053,5.54,5.54,0,0,0,1.672,4.054,5.7,5.7,0,0,0,8.075,0,5.54,5.54,0,0,0,1.672-4.054,5.539,5.539,0,0,0-1.672-4.053,5.693,5.693,0,0,0-8.075,0ZM23.015,13.965,19.669,8.591c-.1.006-.2.009-.312.009H16.5v5.016a.713.713,0,1,1-1.426,0V.717A.694.694,0,0,1,15.285.21a.691.691,0,0,1,.5-.21h3.569a4.118,4.118,0,0,1,3.03,1.26A4.148,4.148,0,0,1,23.64,4.3,4.141,4.141,0,0,1,22.39,7.336a4.214,4.214,0,0,1-1.258.888l3.1,5a.678.678,0,0,1,.117.394.719.719,0,0,1-.715.716A.722.722,0,0,1,23.015,13.965ZM16.5,7.166h2.855a2.748,2.748,0,0,0,2.022-.837A2.768,2.768,0,0,0,22.212,4.3a2.769,2.769,0,0,0-.834-2.028,2.748,2.748,0,0,0-2.022-.838H16.5ZM.21,14.122A.7.7,0,0,1,0,13.616V.717A.7.7,0,0,1,.21.21.691.691,0,0,1,.714,0H9.28a.7.7,0,0,1,.5.21.7.7,0,0,1,.208.507.694.694,0,0,1-.208.506.69.69,0,0,1-.5.21H1.428V6.45h5.71a.69.69,0,0,1,.5.209.717.717,0,0,1,0,1.014.687.687,0,0,1-.5.21H1.428v5.733a.7.7,0,0,1-.21.506.689.689,0,0,1-.5.21A.687.687,0,0,1,.21,14.122Z" fill="#cc1e2c"/>
      </g>
    </g>
  </g>
</svg>
