<svg xmlns="http://www.w3.org/2000/svg" width="120.448" height="150.451" viewBox="0 0 423.31 561.55"><defs><style>.cls-1{fill:#ba202f;}.cls-2{fill:#e94036;}.cls-3{fill:#332f30;}</style></defs><g id="Layer_2" data-name="Layer 2"><g id="Layer_1-2" data-name="Layer 1"><path class="cls-1" d="M330.41,233.49A148.43,148.43,0,0,0,249,0c58,99.16,76.22,196.49,81.37,233.49"/><path class="cls-2" d="M212.19,260.89c-45.77,0-80.33-4.37-100.35-7.78a148.38,148.38,0,0,0,200.7,0c-20,3.41-54.58,7.78-100.35,7.78"/><path class="cls-2" d="M175.34,0A148.43,148.43,0,0,0,94,233.49c5.15-37,23.4-134.33,81.37-233.49"/><polygon class="cls-1" points="245.43 128.71 217.94 128.13 236.46 151.5 215.87 151.57 227.88 176.41 212.78 217.44 161.42 97 257.1 97 245.43 128.71"/><path class="cls-3" d="M10.06,534h3.27l6.11,27.37H15.52l-1.15-5.88H9l-1.16,5.88H4Zm1.66,7.88h-.08l-1.92,9.92h3.92Z"/><path class="cls-3" d="M28.51,534h5.8a6.71,6.71,0,0,1,5.12,1.87,7.28,7.28,0,0,1,1.76,5.2v12.8c0,2.57-.62,4.45-1.86,5.67A7.33,7.33,0,0,1,34,561.32H28.51Zm3.92,23.68h1.81a2.9,2.9,0,0,0,2.34-.83,4,4,0,0,0,.69-2.59V541a4.1,4.1,0,0,0-.65-2.49,2.79,2.79,0,0,0-2.38-.89H32.43Z"/><path class="cls-3" d="M45,534h3.92v27.37H45Z"/><path class="cls-3" d="M60.41,561.32H57L51.38,534h4.15l3.11,19.1h.08L61.87,534H66Z"/><path class="cls-3" d="M68.48,534H72.4v27.37H68.48Z"/><path class="cls-3" d="M88.89,541.83H85V541a4.21,4.21,0,0,0-.63-2.33,2.37,2.37,0,0,0-2.14-1,2.51,2.51,0,0,0-1.32.31,2.2,2.2,0,0,0-.81.79,3.19,3.19,0,0,0-.4,1.11,7.15,7.15,0,0,0-.12,1.33,12.91,12.91,0,0,0,.06,1.36,2.35,2.35,0,0,0,.29,1,2,2,0,0,0,.67.71,6.09,6.09,0,0,0,1.21.62l3,1.19a7.34,7.34,0,0,1,2.11,1.17,4.73,4.73,0,0,1,1.25,1.58,6.69,6.69,0,0,1,.6,2.07,21.48,21.48,0,0,1,.15,2.68,14.18,14.18,0,0,1-.34,3.21,6.83,6.83,0,0,1-1.14,2.53,5.35,5.35,0,0,1-2.09,1.67,7.47,7.47,0,0,1-3.19.62,7.07,7.07,0,0,1-2.66-.5,6.36,6.36,0,0,1-2.11-1.37,6.43,6.43,0,0,1-1.92-4.63v-1.46h3.92v1.23a3.19,3.19,0,0,0,.63,1.94,2.49,2.49,0,0,0,2.14.87,3.45,3.45,0,0,0,1.55-.29,2,2,0,0,0,.85-.81,3.28,3.28,0,0,0,.36-1.29c0-.51.08-1.07.08-1.69a16.7,16.7,0,0,0-.08-1.76,2.87,2.87,0,0,0-.32-1.12,2.07,2.07,0,0,0-.69-.69,10,10,0,0,0-1.18-.58l-2.8-1.15a6.19,6.19,0,0,1-3.4-2.75,9.4,9.4,0,0,1-.87-4.28,10,10,0,0,1,.42-2.92,7,7,0,0,1,1.25-2.39,5.91,5.91,0,0,1,2.1-1.59,6.83,6.83,0,0,1,3-.6,6.56,6.56,0,0,1,4.74,2,6.33,6.33,0,0,1,1.33,2,5.7,5.7,0,0,1,.46,2.25Z"/><path class="cls-3" d="M91.93,534h3.92v27.37H91.93Z"/><path class="cls-3" d="M99.42,540.41a6.89,6.89,0,0,1,.58-2.92,6,6,0,0,1,1.52-2.1,6.63,6.63,0,0,1,2.11-1.25,6.87,6.87,0,0,1,4.73,0,6.74,6.74,0,0,1,2.11,1.25,6,6,0,0,1,1.52,2.1,7,7,0,0,1,.58,2.92v14.45a7,7,0,0,1-.58,2.94,6.09,6.09,0,0,1-1.52,2.08,6.74,6.74,0,0,1-2.11,1.25,6.87,6.87,0,0,1-4.73,0,6.63,6.63,0,0,1-2.11-1.25A6.09,6.09,0,0,1,100,557.8a6.86,6.86,0,0,1-.58-2.94Zm3.92,14.45a2.6,2.6,0,0,0,.79,2.1,2.93,2.93,0,0,0,3.73,0,2.64,2.64,0,0,0,.79-2.1V540.41a2.64,2.64,0,0,0-.79-2.1,2.93,2.93,0,0,0-3.73,0,2.6,2.6,0,0,0-.79,2.1Z"/><path class="cls-3" d="M115.87,534h3.77l5.92,16.49h.07V534h3.92v27.37h-3.69l-6-16.45h-.08v16.45h-3.92Z"/><path class="cls-3" d="M140,540.41a7,7,0,0,1,.57-2.92,6.11,6.11,0,0,1,1.52-2.1,6.67,6.67,0,0,1,2.12-1.25,6.84,6.84,0,0,1,4.72,0,6.67,6.67,0,0,1,2.12,1.25,6.11,6.11,0,0,1,1.52,2.1,7,7,0,0,1,.57,2.92v14.45a7,7,0,0,1-.57,2.94,6.23,6.23,0,0,1-1.52,2.08,6.67,6.67,0,0,1-2.12,1.25,6.84,6.84,0,0,1-4.72,0,6.67,6.67,0,0,1-2.12-1.25,6.23,6.23,0,0,1-1.52-2.08,7,7,0,0,1-.57-2.94Zm3.92,14.45a2.6,2.6,0,0,0,.79,2.1,2.92,2.92,0,0,0,3.72,0,2.6,2.6,0,0,0,.79-2.1V540.41a2.6,2.6,0,0,0-.79-2.1,2.92,2.92,0,0,0-3.72,0,2.6,2.6,0,0,0-.79,2.1Z"/><path class="cls-3" d="M156.61,534H168.3v3.69h-7.77v8.3h6.77v3.69h-6.77v11.69h-3.92Z"/><path class="cls-3" d="M190.43,555.21a6.26,6.26,0,0,1-.48,2.42,6.42,6.42,0,0,1-1.32,2,6.9,6.9,0,0,1-2,1.38,5.75,5.75,0,0,1-2.44.52,8.56,8.56,0,0,1-2.27-.31,5.48,5.48,0,0,1-2.08-1.06,5.66,5.66,0,0,1-1.51-2,7.06,7.06,0,0,1-.6-3.11V540a6.6,6.6,0,0,1,.46-2.49,5.79,5.79,0,0,1,1.31-2,5.88,5.88,0,0,1,2-1.33,6.75,6.75,0,0,1,2.59-.48,6.44,6.44,0,0,1,2.5.48,6,6,0,0,1,2,1.35,6.22,6.22,0,0,1,1.32,2.07,7.12,7.12,0,0,1,.48,2.64v1.53h-3.92v-1.3a3.14,3.14,0,0,0-.65-2,2.12,2.12,0,0,0-1.77-.85,2,2,0,0,0-1.94.91,4.82,4.82,0,0,0-.48,2.28v14a3.59,3.59,0,0,0,.52,2,2,2,0,0,0,1.86.81,2.83,2.83,0,0,0,.83-.14,2.3,2.3,0,0,0,.81-.44,2.22,2.22,0,0,0,.59-.84,3.34,3.34,0,0,0,.23-1.35v-1.34h3.92Z"/><path class="cls-3" d="M193.62,534h6.31q6.91,0,6.92,8a10.18,10.18,0,0,1-.75,4.1,5.83,5.83,0,0,1-2.64,2.75l4.23,12.49h-4.15l-3.65-11.69h-2.35v11.69h-3.92Zm3.92,12.22h2.23a4,4,0,0,0,1.66-.28,2.18,2.18,0,0,0,.94-.83,3.72,3.72,0,0,0,.44-1.33,12.26,12.26,0,0,0,.11-1.82,12.49,12.49,0,0,0-.11-1.83,3.39,3.39,0,0,0-.48-1.34,2.16,2.16,0,0,0-1-.83,4.61,4.61,0,0,0-1.73-.27h-2Z"/><path class="cls-3" d="M210,534h11.68v3.69h-7.76v8h6.76v3.69h-6.76v8h7.76v3.92H210Z"/><path class="cls-3" d="M228.56,534h3.27l6.11,27.37H234l-1.15-5.88h-5.34l-1.16,5.88h-3.92Zm1.66,7.88h-.08l-1.92,9.92h3.92Z"/><path class="cls-3" d="M240.36,537.64h-4.53V534h13v3.69h-4.54v23.68h-3.92Z"/><path class="cls-3" d="M250.66,534h3.92v27.37h-3.92Z"/><path class="cls-3" d="M266.08,561.32h-3.46L257,534h4.15l3.12,19.1h.08l3.15-19.1h4.15Z"/><path class="cls-3" d="M274,534h11.69v3.69H278v8h6.77v3.69H278v8h7.77v3.92H274Z"/><path class="cls-3" d="M295.4,534h11.69v3.69h-7.77v8.3h6.77v3.69h-6.77v11.69H295.4Z"/><path class="cls-3" d="M309.62,534h6.3q6.93,0,6.92,8a10.18,10.18,0,0,1-.75,4.1,5.81,5.81,0,0,1-2.63,2.75l4.23,12.49h-4.15l-3.65-11.69h-2.35v11.69h-3.92Zm3.92,12.22h2.23a4,4,0,0,0,1.65-.28,2.21,2.21,0,0,0,.95-.83,3.72,3.72,0,0,0,.44-1.33,13.78,13.78,0,0,0,.11-1.82,14.05,14.05,0,0,0-.11-1.83,3.39,3.39,0,0,0-.48-1.34,2.26,2.26,0,0,0-1-.83,4.61,4.61,0,0,0-1.73-.27h-2Z"/><path class="cls-3" d="M325.76,540.41a7,7,0,0,1,.58-2.92,6.11,6.11,0,0,1,1.52-2.1,6.74,6.74,0,0,1,2.11-1.25,6.87,6.87,0,0,1,4.73,0,6.63,6.63,0,0,1,2.11,1.25,6,6,0,0,1,1.52,2.1,6.89,6.89,0,0,1,.58,2.92v14.45a6.86,6.86,0,0,1-.58,2.94,6.09,6.09,0,0,1-1.52,2.08,6.63,6.63,0,0,1-2.11,1.25,6.87,6.87,0,0,1-4.73,0,6.74,6.74,0,0,1-2.11-1.25,6.23,6.23,0,0,1-1.52-2.08,7,7,0,0,1-.58-2.94Zm3.92,14.45a2.64,2.64,0,0,0,.79,2.1,2.93,2.93,0,0,0,3.73,0,2.6,2.6,0,0,0,.79-2.1V540.41a2.6,2.6,0,0,0-.79-2.1,2.93,2.93,0,0,0-3.73,0,2.64,2.64,0,0,0-.79,2.1Z"/><path class="cls-3" d="M342.21,534H346l5.92,16.49H352V534h3.92v27.37h-3.69l-6-16.45h-.08v16.45h-3.92Z"/><path class="cls-3" d="M362,537.64h-4.54V534h13v3.69h-4.53v23.68H362Z"/><path class="cls-3" d="M372.31,534h3.92v27.37h-3.92Z"/><path class="cls-3" d="M380,534h11.69v3.69H384v8h6.77v3.69H384v8h7.77v3.92H380Z"/><path class="cls-3" d="M394.25,534h6.31q6.92,0,6.91,8a10.36,10.36,0,0,1-.74,4.1,5.83,5.83,0,0,1-2.64,2.75l4.23,12.49h-4.15l-3.65-11.69h-2.35v11.69h-3.92Zm3.92,12.22h2.23a4.07,4.07,0,0,0,1.66-.28,2.24,2.24,0,0,0,.94-.83,3.72,3.72,0,0,0,.44-1.33,12.26,12.26,0,0,0,.11-1.82,12.49,12.49,0,0,0-.11-1.83,3.39,3.39,0,0,0-.48-1.34,2.21,2.21,0,0,0-1-.83,4.61,4.61,0,0,0-1.73-.27h-2Z"/><path class="cls-3" d="M423.31,541.83h-3.92V541a4.13,4.13,0,0,0-.64-2.33,2.34,2.34,0,0,0-2.13-1,2.48,2.48,0,0,0-1.32.31,2.2,2.2,0,0,0-.81.79,3.19,3.19,0,0,0-.4,1.11,7.15,7.15,0,0,0-.12,1.33,12.91,12.91,0,0,0,.06,1.36,2.35,2.35,0,0,0,.29,1,2,2,0,0,0,.67.71,6.09,6.09,0,0,0,1.21.62l3,1.19a7.34,7.34,0,0,1,2.11,1.17,4.73,4.73,0,0,1,1.25,1.58,7,7,0,0,1,.6,2.07,21.48,21.48,0,0,1,.15,2.68,14.16,14.16,0,0,1-.35,3.21,6.82,6.82,0,0,1-1.13,2.53,5.38,5.38,0,0,1-2.1,1.67,7.44,7.44,0,0,1-3.19.62,7.06,7.06,0,0,1-2.65-.5,6.36,6.36,0,0,1-2.11-1.37,6.43,6.43,0,0,1-1.92-4.63v-1.46h3.92v1.23a3.19,3.19,0,0,0,.63,1.94,2.47,2.47,0,0,0,2.13.87,3.47,3.47,0,0,0,1.56-.29,2,2,0,0,0,.85-.81,3.28,3.28,0,0,0,.36-1.29c.05-.51.08-1.07.08-1.69a16.7,16.7,0,0,0-.08-1.76,2.87,2.87,0,0,0-.32-1.12,2,2,0,0,0-.7-.69,9.08,9.08,0,0,0-1.17-.58l-2.8-1.15a6.21,6.21,0,0,1-3.41-2.75,9.54,9.54,0,0,1-.86-4.28,10,10,0,0,1,.42-2.92,6.8,6.8,0,0,1,1.25-2.39,5.91,5.91,0,0,1,2.1-1.59,6.83,6.83,0,0,1,3-.6,6.5,6.5,0,0,1,2.67.54,6.63,6.63,0,0,1,2.07,1.42,6.33,6.33,0,0,1,1.33,2,5.7,5.7,0,0,1,.46,2.25Z"/><polygon class="cls-3" points="13.56 342.93 45.74 342.93 45.74 355.45 27.95 355.45 27.95 374.45 44.64 374.45 44.64 386.42 27.95 386.42 27.95 416.94 13.56 416.94 13.56 342.93"/><path class="cls-3" d="M56.61,344a85.77,85.77,0,0,1,15.7-1.43c7.91,0,14.94,1.1,19.77,5.49,4.5,4.06,5.82,9,5.82,15.37,0,7.91-3.84,15.05-11.42,18.56v.22c5,2,7.58,6.7,9,14.61,1.43,8.23,3.41,17.35,4.73,20.09h-15c-.88-2.08-2.52-9.55-3.62-17.68-1.32-9.22-3.63-11.86-8.46-11.86H71v29.54H56.61ZM71,376.31h2.52c6.26,0,9.89-5.05,9.89-11.53,0-6.26-2.53-10.76-9-11a10.17,10.17,0,0,0-3.4.44Z"/><path class="cls-3" d="M151.93,378.62c0,27.89-9.88,39.2-23.94,39.2-16.8,0-23.39-17.79-23.39-38.1s8-37.67,24.38-37.67c17.9,0,23,19.66,23,36.57m-32.4,1.32c0,16.8,3.19,25.36,9,25.36,6,0,8.35-11,8.35-26,0-13-2-24.71-8.46-24.71-5.71,0-8.9,9.44-8.9,25.37"/><path class="cls-3" d="M161.05,416.94v-74h13.17l11.42,29c2.2,5.71,5.83,15.26,7.91,21.63h.22c-.44-7.79-1.43-20.64-1.43-34.26V342.93H205v74H191.79l-11.31-28.11A211.88,211.88,0,0,1,173,366.54h-.22c.33,7.47.87,18.89.87,33.71v16.69Z"/><polygon class="cls-3" points="225.73 356.22 212.66 356.22 212.66 342.93 253.29 342.93 253.29 356.22 240.11 356.22 240.11 416.94 225.73 416.94 225.73 356.22"/><rect class="cls-3" x="260.87" y="342.93" width="14.39" height="74.02"/><polygon class="cls-3" points="319.4 384.44 302.49 384.44 302.49 404.43 321.6 404.43 321.6 416.94 288.1 416.94 288.1 342.93 320.28 342.93 320.28 355.45 302.49 355.45 302.49 372.47 319.4 372.47 319.4 384.44"/><path class="cls-3" d="M331.37,344a85.77,85.77,0,0,1,15.7-1.43c7.91,0,14.94,1.1,19.77,5.49,4.5,4.06,5.82,9,5.82,15.37,0,7.91-3.84,15.05-11.42,18.56v.22c5.05,2,7.58,6.7,9,14.61,1.43,8.23,3.41,17.35,4.73,20.09H359.92c-.88-2.08-2.52-9.55-3.62-17.68-1.32-9.22-3.63-11.86-8.46-11.86h-2.08v29.54H331.37Zm14.39,32.28h2.52c6.26,0,9.89-5.05,9.89-11.53,0-6.26-2.53-10.76-9-11a10.17,10.17,0,0,0-3.4.44Z"/><path class="cls-3" d="M381.34,402.23a28,28,0,0,0,12.19,2.85c6.8,0,10.1-3.51,10.1-8.34,0-5.38-3.3-8-9.55-12.08-10.11-6.15-13.95-14-13.95-20.65,0-11.86,7.9-21.74,23.39-21.74,4.83,0,9.44,1.32,11.64,2.64l-2.31,12.4a17.69,17.69,0,0,0-9.44-2.52c-6.15,0-9.12,3.73-9.12,7.69,0,4.39,2.2,6.69,10.22,11.53,9.77,5.93,13.39,13.39,13.39,21.19,0,13.51-10,22.4-24.48,22.4-5.93,0-11.75-1.53-14.17-3Z"/><path class="cls-3" d="M17.24,485.43,14,502.34H0l16-74H33.27l14.39,74H33.71l-3.18-16.91Zm12-11.2L26.8,458.75C26,454.25,25,446.89,24.38,442h-.33c-.77,4.94-1.87,12.62-2.64,16.91l-2.74,15.37Z"/><path class="cls-3" d="M55.79,502.34v-74H69l11.43,29c2.19,5.71,5.82,15.26,7.9,21.63h.22c-.44-7.79-1.43-20.64-1.43-34.26V428.33H99.71v74H86.54L75.22,474.23a211.88,211.88,0,0,1-7.46-22.29h-.22c.33,7.47.88,18.89.88,33.71v16.69Z"/><rect class="cls-3" x="112.45" y="428.33" width="14.39" height="74.02"/><path class="cls-3" d="M184.93,476.43c-.33-7-.88-16.58-.66-24.49h-.33c-1.32,7.91-3.29,17-4.72,22.73l-6.37,26.47H162.64l-6.15-26c-1.43-5.93-3.41-15.15-4.5-23.17h-.33c-.22,8-.66,17.35-1.1,24.71l-1.21,25.69H136.94l5.38-74h15.16l5.93,26.79c2.08,9.34,4,17.57,5.27,25.92h.22c1.1-8.24,2.74-16.58,4.72-25.92l5.82-26.79h15.15l4.51,74H186.25Z"/><path class="cls-3" d="M221.39,485.43l-3.3,16.91H204.15l16-74h17.24l14.39,74H237.86l-3.18-16.91Zm12-11.2-2.42-15.48c-.76-4.5-1.75-11.86-2.41-16.8h-.33c-.77,4.94-1.87,12.62-2.64,16.91l-2.74,15.37Z"/><polygon class="cls-3" points="262.46 441.62 249.39 441.62 249.39 428.33 290.03 428.33 290.03 441.62 276.85 441.62 276.85 502.34 262.46 502.34 262.46 441.62"/><rect class="cls-3" x="297.6" y="428.33" width="14.39" height="74.02"/><path class="cls-3" d="M368.54,464c0,27.89-9.88,39.2-23.94,39.2-16.8,0-23.39-17.79-23.39-38.1s8-37.67,24.38-37.67c17.9,0,23,19.66,23,36.57m-32.39,1.32c0,16.8,3.18,25.36,9,25.36,6,0,8.35-11,8.35-26,0-13-2-24.71-8.46-24.71-5.71,0-8.89,9.44-8.89,25.37"/><path class="cls-3" d="M377.66,502.34v-74h13.18l11.42,29c2.19,5.71,5.82,15.26,7.9,21.63h.22c-.44-7.79-1.42-20.64-1.42-34.26V428.33h12.62v74H408.41L397.1,474.23a211.92,211.92,0,0,1-7.47-22.29h-.22c.33,7.47.88,18.89.88,33.71v16.69Z"/></g></g></svg>