<svg xmlns="http://www.w3.org/2000/svg" xmlns:xlink="http://www.w3.org/1999/xlink" width="158.509" height="158.51" viewBox="0 0 158.509 158.51">
  <defs>
    <clipPath id="clip-path">
      <circle id="Ellipse_251" data-name="Ellipse 251" cx="79.255" cy="79.255" r="79.255" fill="#005c84"/>
    </clipPath>
    <linearGradient id="linear-gradient" x1="0.5" y1="-0.162" x2="0.5" y2="1.028" gradientUnits="objectBoundingBox">
      <stop offset="0" stop-color="#2a7195"/>
      <stop offset="1" stop-color="#060c39"/>
    </linearGradient>
  </defs>
  <g id="Group_17070" data-name="Group 17070" transform="translate(-328.209 -92.248)">
    <circle id="Ellipse_250" data-name="Ellipse 250" cx="79.255" cy="79.255" r="79.255" transform="translate(328.209 92.248)" fill="#005c84"/>
    <g id="Group_17071" data-name="Group 17071" transform="translate(328.209 92.248)" clip-path="url(#clip-path)">
      <g id="Group_17070-2" data-name="Group 17070" transform="translate(28.417 10.616)">
        <path id="Path_10855" data-name="Path 10855" d="M426.858,188.392s-19.8-5.363-39.39,0l-1.914,7.767,19.3,21.778,20.848-9.92Z" transform="translate(-354.341 -99.128)" fill="#fff"/>
        <path id="Path_10856" data-name="Path 10856" d="M379.256,144.9a21.026,21.026,0,0,0,.9,10.414,8.644,8.644,0,0,0,1.7,3.083,3.658,3.658,0,0,0,6.185-.722,8.877,8.877,0,0,0,1-3.684,22.993,22.993,0,0,0-2.575-12.846c-1-1.881-3-3.285-4.947-1.646C380.2,140.607,379.522,143.311,379.256,144.9Z" transform="translate(-354.603 -101.01)" fill="#b27344" stroke="#100052" stroke-linecap="round" stroke-linejoin="round" stroke-width="0.608"/>
        <path id="Path_10857" data-name="Path 10857" d="M367.322,131.234c2.481,5.8-7.335,8.668-2.26,19.437.655,1.323,1.557,2.64,1.479,4.115-.1,1.947-1.829,3.334-3.028,4.872-4.5,5.49-1.413,14.521,5.508,16.105-7.841,12.283,54.128,13.032,58.2,5.958,6.835,7.061,19.4.193,17.147-9.369,4.255.511,2.536-5.158,1.85-7.584,1.486-7.067,1.124-12.711-3.636-18.785,6.177-11.282-3.549-12.724-3.831-19.768-1.592-7.106-9.464-21.477-17.65-21.275a10.973,10.973,0,0,1-8.382-1.042c-8.346-4.046-12.916,1.658-20.758,2.244-4.22,1.926-9.8,2.655-12.077,7.11-.68,1.515-.4,3.974-1.426,5.222-1.145,1.389-4.027,1.464-5.615,2.364C369.264,122.865,366.2,126.935,367.322,131.234Z" transform="translate(-355.303 -102.457)" fill="#100052"/>
        <path id="Path_10858" data-name="Path 10858" d="M385.134,205.349c-2.431-2.431-4.862-6.114-7.293-9.1-6.74,2.473-14.423,4.774-20.854,11.229-4.648,10.182,3.246,32.461,4.65,43.074l25.064.033c-3.41-11.227-7.222-21.8-13.005-31.715C379.935,216.787,379.935,208.468,385.134,205.349Z" transform="translate(-355.537 -98.721)" fill="#fff"/>
        <path id="Path_10859" data-name="Path 10859" d="M385.04,192.82a44.333,44.333,0,0,1-7.9,3.561c2.431,2.99,4.862,6.673,7.293,9.1-5.2,3.12-5.2,11.438-11.438,13.518,5.784,9.914,9.6,20.488,13.005,31.715l6.8.008C397.356,232.4,392.11,210.537,385.04,192.82Z" transform="translate(-354.841 -98.857)" fill="#c9e0e0"/>
        <path id="Path_10860" data-name="Path 10860" d="M427.065,193.6c-6.383-3.561-10.772-10.859-9.7-28.319l-25.125-.332c1.341,8.7,1.075,14.826-.331,19.308C401.744,192.187,414.249,194.808,427.065,193.6Z" transform="translate(-354.088 -99.967)" fill="#8a4b1e"/>
        <path id="Path_10861" data-name="Path 10861" d="M427.357,192.861c-12.816,1.207-25.321-1.414-35.151-9.343a16.636,16.636,0,0,1-7.627,9.673c7.07,17.717,12.316,39.584,7.77,57.907l60.387.08c4.412-16.938,6.135-30.336,3.593-47.778C449.09,195.514,436.276,197.839,427.357,192.861Z" transform="translate(-354.38 -99.228)" fill="#b27344"/>
        <path id="Path_10862" data-name="Path 10862" d="M385.963,158.243c2.517-4.467-1.367-14.347-5.945-15.708C375.182,144.418,381.96,164.166,385.963,158.243Z" transform="translate(-354.628 -100.86)" fill="#b27344" stroke="#100052" stroke-linecap="round" stroke-linejoin="round" stroke-width="0.608"/>
        <path id="Path_10863" data-name="Path 10863" d="M424.367,158.243c-2.518-4.467,1.367-14.347,5.945-15.708C435.148,144.418,428.37,164.166,424.367,158.243Z" transform="translate(-352.826 -100.86)" fill="#b27344" stroke="#100052" stroke-linecap="round" stroke-linejoin="round" stroke-width="0.608"/>
        <path id="Path_10864" data-name="Path 10864" d="M381.005,142.541s4.661,39.045,23.387,41.35c0,0,19.551,2.046,26.776-37.622,0,0,4.067-38.977-23.726-36.6S382.022,130.678,381.005,142.541Z" transform="translate(-354.522 -102.174)" fill="#b27344" stroke="#100052" stroke-linecap="round" stroke-linejoin="round" stroke-width="0.608"/>
        <path id="Path_10865" data-name="Path 10865" d="M385.494,133.443l1.554.856a7.611,7.611,0,0,0-.5-7.05c.985,1.458,3.434,1.025,4.5-.371s1.151-3.286,1.19-5.044c-.339,2.85,3.394,4.817,6.083,3.812s4.272-3.777,5.255-6.473a9.572,9.572,0,0,0,.095,3.828,3.266,3.266,0,0,0,2.676,2.442c1.283.083,2.559-1.283,2.078-2.476-.545,1.029.872,2.212,1.994,1.9a3.96,3.96,0,0,0,2.24-2.522,6.648,6.648,0,0,1,1.78-2.952,7.678,7.678,0,0,0,8.507,5.844c-2.448,2.1-1.722,6.742,1.25,7.994-.473,1.484-.832,3.17-.093,4.541s3.05,1.835,3.789.465a17.729,17.729,0,0,0,4.236,11.224c1.362,1.587,3.759,2.97,5.409,1.685a4.318,4.318,0,0,0,1.3-2.827,37.91,37.91,0,0,0-.7-13.542c-1.917-9.465-6.311-19.436-15.1-23.441-4.381-2-9.329-2.25-14.142-2.41-8.069-.268-16.74-.189-23.371,4.415-7.351,5.106-10.681,15.276-10.059,23.964.22,3.094,2.327,9.013,6.566,7.722C384.531,144.26,388.437,135.063,385.494,133.443Z" transform="translate(-354.746 -102.203)" fill="#100052"/>
        <path id="Path_10866" data-name="Path 10866" d="M383.829,148.462c-.551.971-1.935.988-3.03.766a6.086,6.086,0,0,1-3.153-1.437,5.927,5.927,0,0,1-1.461-3.558,7.632,7.632,0,0,1,.833-4.983,4.238,4.238,0,0,1,7.156.063,8.81,8.81,0,0,1,.826,3.23c.151.912.323,4.464-1.653,3.135C383.795,146.483,384.34,147.562,383.829,148.462Z" transform="translate(-354.718 -101.068)" fill="#100052"/>
        <path id="Path_10867" data-name="Path 10867" d="M427.716,146.237a3.687,3.687,0,0,0-1.226,5.175,2.344,2.344,0,0,0,2.1.567,5,5,0,0,0,2.018-.992A7.248,7.248,0,0,0,432.52,149c1.129-1.856.983-4.224.434-6.325-.649-2.482-3.572-5.8-5.979-3.02a8.612,8.612,0,0,0-1.886,4.3C424.983,145.194,426.21,147.442,427.716,146.237Z" transform="translate(-352.766 -101.017)" fill="#100052"/>
        <path id="Path_10868" data-name="Path 10868" d="M414.2,143.607a2.1,2.1,0,0,1,1.557-.872c1.6-.059,2.368,2.46.584,2.891a2.156,2.156,0,0,1-1.443-.21,1.512,1.512,0,0,1-.877-.979A1.1,1.1,0,0,1,414.2,143.607Z" transform="translate(-353.208 -100.852)" fill="#100052"/>
        <path id="Path_10869" data-name="Path 10869" d="M396.382,143.607a2.1,2.1,0,0,0-1.558-.872c-1.6-.059-2.368,2.46-.584,2.891a2.159,2.159,0,0,0,1.444-.21,1.515,1.515,0,0,0,.877-.979A1.1,1.1,0,0,0,396.382,143.607Z" transform="translate(-354.036 -100.852)" fill="#100052"/>
        <path id="Path_10870" data-name="Path 10870" d="M389.587,140.207c3.91-2,8.241-3.683,12.661-2.459" transform="translate(-354.18 -101.068)" fill="#b27344" stroke="#100052" stroke-linecap="round" stroke-linejoin="round" stroke-width="1.577"/>
        <path id="Path_10871" data-name="Path 10871" d="M411.013,137.548c3.112-.615,6.725-.737,9.315,1.365" transform="translate(-353.327 -101.075)" fill="#b27344" stroke="#100052" stroke-linecap="round" stroke-linejoin="round" stroke-width="1.577"/>
        <path id="Path_10872" data-name="Path 10872" d="M398.649,164.069s8.949,1.428,15.423-1.809C414.072,162.26,406.741,169.971,398.649,164.069Z" transform="translate(-353.819 -100.075)" fill="#fff"/>
        <path id="Path_10873" data-name="Path 10873" d="M388.3,203.763s23.361,6.215,36.675,0l-2.9,48.977-29.52.742Z" transform="translate(-354.232 -98.421)" fill="url(#linear-gradient)"/>
        <path id="Path_10874" data-name="Path 10874" d="M409.347,156.04c-.03.046-.062.089-.1.131-1.493,1.843-4.451,3.89-6.413,1.205-.583-.8-1.6-2.073-1.238-2.986,1.331.165,1.869,1.349,3.291,1.356,1.046.006,3.82-1.35,4.5-.6A.715.715,0,0,1,409.347,156.04Z" transform="translate(-353.705 -100.388)" fill="#9b5f37"/>
        <path id="Path_10875" data-name="Path 10875" d="M387.811,188.3l-10.065,5.81,8.714,11.822-9.525,10.742L394.5,264.907C397.774,241.915,394.338,215.822,387.811,188.3Z" transform="translate(-354.685 -99.037)" fill="#fff"/>
        <path id="Path_10876" data-name="Path 10876" d="M455.881,201.411c-6.505-6.528-13.754-5.723-20.238-6.441-10.447,8.4-2.688,15.284,5.976,23.948-4.337,10.841-10.181,21.182-16.135,31.717l26.811-.035C453.7,239.986,460.528,211.594,455.881,201.411Z" transform="translate(-352.75 -98.771)" fill="#fff"/>
        <path id="Path_10877" data-name="Path 10877" d="M435.9,195.056a17.545,17.545,0,0,1-7.448-2.236c-7.069,17.717-12.315,39.584-7.769,57.907l5.058-.006c5.954-10.536,11.8-20.876,16.135-31.717C433.213,210.339,425.454,203.456,435.9,195.056Z" transform="translate(-353.009 -98.857)" fill="#c9e0e0"/>
        <path id="Path_10878" data-name="Path 10878" d="M425.579,188.3l10.066,5.81-8.715,11.822,9.525,10.742-17.563,48.233C415.616,241.915,419.053,215.822,425.579,188.3Z" transform="translate(-353.063 -99.037)" fill="#fff"/>
      </g>
    </g>
  </g>
</svg>
