<svg xmlns="http://www.w3.org/2000/svg" width="62" height="62" viewBox="0 0 62 62">
  <g id="bucket" transform="translate(-4605 -1264)">
    <circle id="Ellipse_17" data-name="Ellipse 17" cx="31" cy="31" r="31" transform="translate(4605 1264)" fill="#f19840"/>
    <g id="Group_71" data-name="Group 71" transform="translate(4613.395 1276.183)">
      <path id="Path_366" data-name="Path 366" d="M4308.82,3492.84c-7.576,0-15.761,2.077-15.761,6.678l.407,3.258c-5.824,3.828-8.512,7.779-7.29,11,.651,1.751,2.647,3.828,8.43,3.828h.692l.734,5.743c.162,3.828,6.517,5.539,12.788,5.539s12.625-1.71,12.788-5.539l2.932-23.5v-.244C4324.58,3494.96,4316.4,3492.84,4308.82,3492.84Zm0,3.909c7.331,0,11.322,1.915,11.81,2.769-.448.856-4.4,2.811-11.81,2.811s-11.363-1.955-11.811-2.811c.491-.858,4.481-2.768,11.811-2.768Zm-19.02,15.639c-.243-.611.612-2.606,4.2-5.253l.813,6.557c-3.253,0-4.8-.732-5.013-1.3Zm19.02,12.544c-5.295,0-8.39-1.344-8.919-1.955l-.733-5.783a48.473,48.473,0,0,0,7.331-1.711,3.665,3.665,0,1,0-1.262-3.706,44.5,44.5,0,0,1-6.557,1.548l-1.141-8.919a35.389,35.389,0,0,0,22.48,0l-2.321,18.571c-.488.613-3.578,1.953-8.878,1.953Z" transform="translate(-4285.89 -3492.84)" fill="#fff"/>
    </g>
  </g>
</svg>
