<svg xmlns="http://www.w3.org/2000/svg" xmlns:xlink="http://www.w3.org/1999/xlink" width="66.974" height="66.974" xmlns:v="https://vecta.io/nano"><style><![CDATA[.B{stroke:#a9bdc5}.C{fill:#fff}.D{fill:none}.E{fill:#a9bdc5}.F{stroke-width:1}]]></style><defs><clipPath id="A"><circle cx="32.987" cy="32.987" r="32.987" class="B D F"/></clipPath><clipPath id="B"><path d="M578.568 1164.91s-9.976 3.225-9.976 17.472l-.273 27.538c0 6.268-7.386 32.28-7.386 32.28l7.511 2.028c3.636-12.178 6.15-24.664 7.511-37.3 1.963-19.733 2.613-42.018 2.613-42.018z" transform="translate(-560.933 -1164.91)" class="B C F"/></clipPath><clipPath id="C"><path d="M600.964 1153.365l.093 9.511s11.606 3.539 16.252 8.185-6.505 46.278-6.505 46.278 13.164 15.23 10.8 31.2c-23.153 8.365-56.054-4.309-56.054-4.309l9.313-28.615-.515-6.422c-.362-4.9-1.781-12.045-2.041-19.376-.268-7.536 3.258-16.532 3.758-22.239.314-3.576 10.416-5.115 10.416-5.115l-.345-9.1z" transform="translate(-565.546 -1153.365)" class="B C F"/></clipPath><clipPath id="D"><path d="M624.313 1203.46a149.6 149.6 0 0 0-2.375-20.033c-.869-4.335-2.82-14.322-8.615-14.392-7.793-.094-6.894 11.311-5.97 16.1l2.207 12.058c.7 4.059 1.378 8.132 1.825 12.227.173 1.586 1.007 4.886.064 6.371-1.709 2.691-16.042 35.06-16.042 35.06l7.147 1.618c22.146-29.576 23.021-28.985 21.759-49.009z" transform="translate(-595.407 -1169.034)" class="B C F"/></clipPath><path id="E" d="M17.653 48.453s-9.976 3.225-9.976 17.472l-.273 27.538c0 6.268-7.386 32.28-7.386 32.28l7.511 2.028c3.636-12.178 6.15-24.664 7.511-37.3 1.963-19.733 2.613-42.018 2.613-42.018z"/><path id="F" d="M40.049 36.908l.093 9.511s11.606 3.539 16.252 8.185-6.505 46.278-6.505 46.278 13.164 15.23 10.8 31.2c-23.153 8.365-56.054-4.309-56.054-4.309l9.313-28.615-.515-6.422c-.362-4.9-1.781-12.045-2.041-19.376-.268-7.536 3.258-16.532 3.758-22.239.314-3.576 10.416-5.115 10.416-5.115l-.345-9.1z"/><path id="G" d="M63.398 87.004a149.6 149.6 0 0 0-2.375-20.033c-.869-4.335-2.82-14.322-8.615-14.392-7.793-.094-6.894 11.311-5.97 16.1l2.207 12.058c.7 4.059 1.378 8.132 1.825 12.227.173 1.586 1.007 4.886.064 6.371-1.709 2.691-16.042 35.06-16.042 35.06l7.147 1.618c22.146-29.576 23.021-28.985 21.759-49.009z"/></defs><g clip-path="url(#A)" transform="translate(.5 .5)"><use xlink:href="#E" class="C"/><g clip-path="url(#B)" transform="translate(.018 48.453)" class="E"><path d="M4.102 17.472l15.056 3.49s2.1-43.393-15.056-3.49z"/></g><use xlink:href="#E" class="B D"/><use xlink:href="#F" class="C"/><g clip-path="url(#C)" transform="translate(4.631 36.908)"><path d="M35.511 9.511s-2.82 5.6-8.788 5.6c-5.108 0-5.792-6.014-5.792-6.014L-1.877 12.17l9.769 48.657s16.45 15.166 40.349 1.582c11.029-32.987 24.404-48.99-12.73-52.898z" class="E"/><path d="M-11.838 107.193L3.335 54.612c16.941 3.872 33.509 7.042 49.73 0l-.238 11.729 12.523 41.262z" fill="#1c1c1b" stroke="#104573" stroke-linejoin="round" stroke-width=".6"/></g><use xlink:href="#F" class="B D"/><path d="M25.945 46.352s9.541.933 14.53-7.6c-10.527 0-14.53 1.487-14.53 1.487z" class="E"/><use xlink:href="#G" class="C"/><g clip-path="url(#D)" transform="translate(34.492 52.578)" class="E"><path d="M7.133 17.538l28.669-4.552S13.476-27.628 7.133 17.538z"/></g><g class="B"><use xlink:href="#G" class="D"/><path d="M46.662 25.611c-4.539 24.053-29.188 27.836-28.468-1.94-.518-21.628 32.205-17.863 28.468 1.94z" class="C"/></g><path d="M44.414 28.292S33.269 26.04 30.029 14.373c-7.7 7.7-14.878 2.568-14.878 2.568s2.291-10.7 19.093-10.7 17.797 18.133 10.17 22.051z" class="E"/><g class="B"><path d="M42.413 28.397c7.415-5.755 8.469 7.2.079 7.364" class="C"/><path d="M46.247 28.958c-1.33.892-2.076 2.432-1.951 4.029" class="D"/></g></g><g class="B"><circle cx="33.487" cy="33.487" r="32.987" class="D"/><g class="C"><rect width="5.731" height="7.536" rx="2.865" x="24.742" y="33.721"/><path d="M37.253 28.951l.426 2.664c.354 1.919 1.63 4.123-.053 4.45h-.941c-1.684-.327-.407-2.531-.054-4.45l.427-2.664z"/></g></g></svg>