<svg xmlns="http://www.w3.org/2000/svg" xmlns:xlink="http://www.w3.org/1999/xlink" width="66.974" height="66.974" xmlns:v="https://vecta.io/nano"><style><![CDATA[.B{stroke:#a9bdc5}.C{fill:#fff}.D{fill:none}.E{stroke-width:1}]]></style><defs><clipPath id="A"><circle cx="32.987" cy="32.987" r="32.987" class="B D E"/></clipPath><clipPath id="B"><path d="M786.655 1164.661s-9.976 3.225-9.976 17.472l-.273 27.538c0 6.268-7.386 32.28-7.386 32.28l7.511 2.028a208.32 208.32 0 0 0 7.511-37.3c1.963-19.733 2.613-42.018 2.613-42.018z" transform="translate(-769.02 -1164.661)" class="B C E"/></clipPath><clipPath id="C"><path d="M809.051 1153.116l.092 9.511s11.607 3.539 16.253 8.185-6.505 46.278-6.505 46.278 13.164 15.229 10.795 31.2c-23.153 8.365-56.053-4.309-56.053-4.309l9.313-28.615-.515-6.422c-.363-4.9-1.781-12.046-2.041-19.376-.268-7.536 3.258-16.532 3.758-22.239.314-3.577 10.415-5.115 10.415-5.115l-.345-9.1z" transform="translate(-773.633 -1153.116)" class="B C E"/></clipPath><clipPath id="D"><path d="M832.4 1203.211c-.341-6.723-1.135-13.416-2.375-20.033-.869-4.335-2.821-14.322-8.615-14.392-7.793-.094-6.894 11.311-5.971 16.1l2.207 12.058c.7 4.059 1.379 8.132 1.825 12.227.173 1.586 1.008 4.885.065 6.371-1.71 2.691-16.042 35.06-16.042 35.06l7.147 1.618c22.142-29.576 23.021-28.985 21.759-49.009z" transform="translate(-803.494 -1168.785)" class="B C E"/></clipPath><path id="E" d="M17.653 48.453s-9.976 3.225-9.976 17.472l-.273 27.538c0 6.268-7.386 32.28-7.386 32.28l7.511 2.028a208.32 208.32 0 0 0 7.511-37.3c1.963-19.733 2.613-42.018 2.613-42.018z"/><path id="F" d="M40.049 36.908l.092 9.511s11.607 3.539 16.253 8.185-6.505 46.278-6.505 46.278 13.164 15.229 10.795 31.2c-23.153 8.365-56.053-4.309-56.053-4.309l9.313-28.615-.515-6.422c-.363-4.9-1.781-12.046-2.041-19.376-.268-7.536 3.258-16.532 3.758-22.239.314-3.577 10.415-5.115 10.415-5.115l-.345-9.1z"/><path id="G" d="M63.398 87.004c-.341-6.723-1.135-13.416-2.375-20.033-.869-4.335-2.821-14.322-8.615-14.392-7.793-.094-6.894 11.311-5.971 16.1l2.207 12.058c.7 4.059 1.379 8.132 1.825 12.227.173 1.586 1.008 4.885.065 6.371-1.71 2.691-16.042 35.06-16.042 35.06l7.147 1.618c22.142-29.576 23.021-28.985 21.759-49.009z"/></defs><g clip-path="url(#A)" transform="translate(.5 .5)"><use xlink:href="#E" class="C"/><g clip-path="url(#B)" transform="translate(.018 48.453)" class="B C"><path d="M4.102 17.472l15.055 3.489s2.101-43.392-15.055-3.489z"/></g><use xlink:href="#E" class="B D"/><use xlink:href="#F" class="C"/><g clip-path="url(#C)" transform="translate(4.631 36.908)"><path d="M35.51 9.511s-2.82 5.6-8.787 5.6c-5.108 0-5.793-6.014-5.793-6.014l-22.807 3.072 9.768 48.658s16.451 15.166 40.35 1.582C59.267 29.422 72.644 13.419 35.51 9.511z" class="B C"/><path d="M-11.839 107.193L3.334 54.611c16.942 3.873 33.51 7.043 49.73 0l-.237 11.729 12.522 41.262z" fill="#1c1c1b" stroke="#104573" stroke-linejoin="round" stroke-width=".6"/></g><use xlink:href="#F" class="B D"/><path d="M25.722 46.519s9.541.933 14.531-7.6c-10.527 0-14.531 1.487-14.531 1.487z" fill="#a9bdc5"/><use xlink:href="#G" class="C"/><g clip-path="url(#D)" transform="translate(34.492 52.578)" class="B C"><path d="M7.132 17.538l28.669-4.552S13.476-27.628 7.132 17.538z"/></g><g class="B"><use xlink:href="#G" class="D"/><g class="C"><path d="M46.708 25.611c-4.54 24.053-35.09 29.082-28.469-1.94-.518-21.63 32.206-17.863 28.469 1.94z"/><path d="M44.459 28.292s-3.381-5.144-6.622-16.81c-12.419.358-18.367 4.9-18.367 4.9s-1.983-10.14 14.819-10.14 17.797 18.132 10.17 22.05z"/><path d="M42.459 28.392c7.414-5.755 8.468 7.2.078 7.364"/></g><path d="M45.348 29.125c-1.331.892-2.076 2.433-1.951 4.03" class="D"/></g></g><g class="B D"><circle cx="33.487" cy="33.487" r="32.987"/><path d="M20.925 23.674a7.46 7.46 0 0 1 4.557 4.039m5.716-.56a12.8 12.8 0 0 1 5.536-3.973M24.566 38.225c.444-1.883 2.189-3.167 4.119-3.03a6.5 6.5 0 0 1 4.66 2.784"/></g></svg>