<svg xmlns="http://www.w3.org/2000/svg" xmlns:xlink="http://www.w3.org/1999/xlink" width="66.974" height="66.974" xmlns:v="https://vecta.io/nano"><style><![CDATA[.B{stroke:#a9bdc5}.C{fill:none}.D{fill:#fff}.E{fill:#a9bdc5}]]></style><defs><clipPath id="A"><circle cx="32.987" cy="32.987" r="32.987" stroke-width="1" class="B C"/></clipPath><clipPath id="B"><path d="M390.717 1153.365l.092 9.511s11.607 3.539 16.253 8.185-6.505 46.278-6.505 46.278 13.164 15.23 10.795 31.2c-23.153 8.365-56.054-4.309-56.054-4.309l9.313-28.615-.515-6.422c-.362-4.9-1.78-12.045-2.041-19.376-.267-7.536 3.258-16.532 3.759-22.239.313-3.576 10.415-5.115 10.415-5.115l-.345-9.1z" transform="translate(-355.298 -1153.365)" stroke-width="1" class="B D"/></clipPath><path id="C" d="M17.652 48.453s-9.976 3.225-9.976 17.472l-.272 27.538c0 6.268-7.387 32.28-7.387 32.28l7.512 2.028a208.37 208.37 0 0 0 7.51-37.3c1.963-19.733 2.613-42.018 2.613-42.018z"/><path id="D" d="M40.049 36.908l.092 9.511s11.607 3.539 16.253 8.185-6.505 46.278-6.505 46.278 13.164 15.23 10.795 31.2c-23.153 8.365-56.054-4.309-56.054-4.309l9.313-28.615-.515-6.422c-.362-4.9-1.78-12.045-2.041-19.376-.267-7.536 3.258-16.532 3.759-22.239.313-3.576 10.415-5.115 10.415-5.115l-.345-9.1z"/><path id="E" d="M63.397 87.004c-.34-6.723-1.133-13.416-2.374-20.033-.87-4.335-2.821-14.322-8.615-14.392-7.793-.094-6.895 11.311-5.971 16.1l2.207 12.058c.7 4.059 1.378 8.132 1.825 12.227.173 1.586 1.008 4.886.065 6.371-1.71 2.691-16.042 35.06-16.042 35.06l7.146 1.618c22.143-29.576 23.022-28.985 21.759-49.009z"/></defs><g transform="translate(.5 .5)" clip-path="url(#A)"><use xlink:href="#C" class="D"/><use xlink:href="#C" class="B C"/><use xlink:href="#D" class="D"/><g clip-path="url(#B)" transform="translate(4.63 36.908)" class="B D"><path d="M-11.838 107.193L3.335 54.612c16.942 3.872 33.509 7.042 49.73 0l-.237 11.729 12.522 41.262z"/></g><use xlink:href="#D" class="B C"/><path d="M25.945 46.352s9.54.933 14.53-7.6c-10.527 0-14.53 1.487-14.53 1.487z" class="E"/><use xlink:href="#E" class="D"/><g class="B"><use xlink:href="#E" class="C"/><path d="M46.661 25.611c-4.539 24.053-29.188 27.836-28.468-1.94-.518-21.628 32.206-17.863 28.468 1.94z" class="D"/></g><path d="M44.413 28.292s-6.117 1.3-5.419-9.638c-27.1 5.119-23.022-10.651-23.022-10.651s1.469-1.766 18.271-1.766 17.797 18.137 10.17 22.055z" class="E"/><g class="B"><path d="M42.413 28.397c7.414-5.755 8.468 7.2.078 7.364" class="D"/><path d="M46.246 28.958c-1.33.892-2.076 2.432-1.951 4.029" class="C"/></g><path d="M43.232 47.825c-5 13.773-10.55 12.1-16.543 11.064-7.784-1.346-3.744-12.346-3.744-12.346L18.9 47.887l-3.7 2.222-1.652 9.343 6.95 4.33 10.938 2.335 10.141-1.082 4.273-1.652.341-5.925 2.678-3.988 4.956-.683-5.583-3.191z" class="E"/><path d="M32.942 37.243q-3.277 3.657-6.782.214" class="B C"/></g><circle cx="33.487" cy="33.487" r="32.987" class="B C"/></svg>