<svg xmlns="http://www.w3.org/2000/svg" xmlns:xlink="http://www.w3.org/1999/xlink" width="66.974" height="66.974" xmlns:v="https://vecta.io/nano"><style><![CDATA[.B{stroke:#a9bdc5}.C{fill:#fff}.D{fill:none}.E{stroke-width:1}.F{fill:#a9bdc5}]]></style><defs><clipPath id="A"><circle cx="32.987" cy="32.987" r="32.987" class="B D E"/></clipPath><clipPath id="B"><path d="M1096.517 1165.068s-9.976 3.225-9.976 17.472l-.272 27.539c0 6.268-7.387 32.28-7.387 32.28l7.511 2.028c3.636-12.178 6.15-24.664 7.511-37.3 1.963-19.734 2.613-42.019 2.613-42.019z" transform="translate(-1078.882 -1165.068)" class="B C E"/></clipPath><clipPath id="C"><path d="M1118.913 1153.523l.092 9.511s11.608 3.54 16.254 8.186-6.505 46.277-6.505 46.277 13.163 15.23 10.795 31.2c-23.153 8.364-56.054-4.309-56.054-4.309l9.313-28.616-.515-6.421c-.362-4.9-1.78-12.046-2.041-19.377-.267-7.536 3.258-16.531 3.758-22.238.314-3.577 10.416-5.116 10.416-5.116l-.345-9.1z" transform="translate(-1083.495 -1153.523)" class="B C E"/></clipPath><clipPath id="D"><path d="M1142.262 1203.618a149.78 149.78 0 0 0-2.375-20.033c-.869-4.335-2.82-14.321-8.615-14.391-7.793-.095-6.894 11.31-5.971 16.1l2.208 12.058c.695 4.058 1.378 8.131 1.825 12.226.173 1.586 1.008 4.886.064 6.372-1.709 2.69-16.042 35.06-16.042 35.06l7.147 1.617c22.142-29.576 23.021-28.985 21.759-49.009z" transform="translate(-1113.356 -1169.193)" class="B C E"/></clipPath><path id="E" d="M17.653 48.453s-9.976 3.225-9.976 17.472l-.272 27.539c0 6.268-7.387 32.28-7.387 32.28l7.511 2.028c3.636-12.178 6.15-24.664 7.511-37.3 1.963-19.734 2.613-42.019 2.613-42.019z"/><path id="F" d="M40.049 36.908l.092 9.511s11.608 3.54 16.254 8.186-6.505 46.277-6.505 46.277 13.163 15.23 10.795 31.2c-23.153 8.364-56.054-4.309-56.054-4.309l9.313-28.616-.515-6.421c-.362-4.9-1.78-12.046-2.041-19.377-.267-7.536 3.258-16.531 3.758-22.238.314-3.577 10.416-5.116 10.416-5.116l-.345-9.1z"/><path id="G" d="M63.398 87.003a149.78 149.78 0 0 0-2.375-20.033c-.869-4.335-2.82-14.321-8.615-14.391-7.793-.095-6.894 11.31-5.971 16.1l2.208 12.058c.695 4.058 1.378 8.131 1.825 12.226.173 1.586 1.008 4.886.064 6.372-1.709 2.69-16.042 35.06-16.042 35.06l7.147 1.617c22.142-29.576 23.021-28.985 21.759-49.009z"/></defs><g clip-path="url(#A)" transform="translate(.5 .5)"><g class="C"><path d="M35.006 76.824l.534-.017a18.77 18.77 0 0 0 18.015-20.883c-1.837-15.766-7.115-29.86-21.131-29.86-8.411 0-14.371 14.392-16.562 29.266a18.77 18.77 0 0 0 19.144 21.494z" class="B"/><use xlink:href="#E"/></g><g clip-path="url(#B)" transform="translate(.018 48.453)" class="F"><path d="M4.102 17.472l15.056 3.49s2.1-43.393-15.056-3.49z"/></g><use xlink:href="#E" class="B D"/><use xlink:href="#F" class="C"/><g clip-path="url(#C)" transform="translate(4.631 36.908)"><path d="M35.51 9.511s-2.819 5.6-8.787 5.6c-5.108 0-5.792-6.014-5.792-6.014L-1.877 12.17l9.769 48.658s16.45 15.166 40.349 1.581C59.27 29.423 72.645 13.419 35.51 9.511z" class="F"/><path d="M-11.838 107.193L3.334 54.612c16.942 3.872 33.51 7.042 49.73 0l-.237 11.729 12.523 41.263z" fill="#1c1c1b" stroke="#1c1c1b" stroke-linejoin="round" stroke-width=".6"/></g><use xlink:href="#F" class="B D"/><use xlink:href="#G" class="C"/><g clip-path="url(#D)" transform="translate(34.492 52.578)" class="F"><path d="M7.133 17.537l28.669-4.551S13.476-27.629 7.133 17.537z"/></g><use xlink:href="#G" class="B D"/><path d="M25.945 46.519s9.541 2.537 14.53-5.993c-10.526 0-14.53-.117-14.53-.117z" class="F"/><g class="B C"><path d="M46.662 25.611c-.5 28.1-36.291 22.842-28.468-1.94-.518-21.63 28.825-18.209 28.468 1.94z"/><path d="M44.414 28.292s-.4.357-3.645-11.31c-14.417 5.328-21.559-.041-21.559-.041s-1.768-10.7 15.034-10.7 17.797 18.133 10.17 22.051z"/><path d="M42.414 28.397c7.413-5.755 8.468 7.2.078 7.365"/></g><g class="D B"><path d="M46.247 29.125c-1.331.892-2.076 2.433-1.951 4.03m-19.813 5.583h10.038c-.458-1.089-1.262-1.998-2.288-2.584-2.623-1.287-6.782-1.338-7.75 2.584zm1.541-12.937c-1.63.769-3.459 1.009-5.232.686m11.47-.733a11.09 11.09 0 0 0 6.469.747m-6.116-5.116a5.7 5.7 0 0 0 4.119 2.314M26.081 21.23a5.63 5.63 0 0 1-4.994 2.919"/></g></g><g class="B"><circle cx="33.487" cy="33.487" r="32.987" class="D"/><path d="M38.108 28.015l.426 2.665c.354 1.918 1.631 4.122-.053 4.45h-.938c-1.684-.328-.407-2.532-.053-4.45l.426-2.665zm-15.884-.266l.427 2.664c.353 1.919 1.63 4.123-.054 4.45h-.938c-1.683-.327-.406-2.531-.053-4.45l.426-2.664z" class="C"/></g></svg>