<svg xmlns="http://www.w3.org/2000/svg" xmlns:xlink="http://www.w3.org/1999/xlink" width="66.973" height="66.974" xmlns:v="https://vecta.io/nano"><style><![CDATA[.B{stroke:#a9bdc5}.C{fill:#fff}.D{fill:none}.E{fill:#a9bdc5}.F{stroke-width:1}]]></style><defs><clipPath id="A"><circle cx="32.987" cy="32.987" r="32.987" class="B D F"/></clipPath><clipPath id="B"><path d="M682.153 1164.91s-9.976 3.225-9.976 17.472l-.272 27.538c0 6.268-7.387 32.28-7.387 32.28l7.511 2.028c3.636-12.178 6.15-24.664 7.511-37.3 1.96-19.733 2.613-42.018 2.613-42.018z" transform="translate(-664.518 -1164.91)" class="B C F"/></clipPath><clipPath id="C"><path d="M704.549 1153.365l.092 9.511s11.608 3.539 16.254 8.185-6.505 46.278-6.505 46.278 13.163 15.23 10.795 31.2c-23.153 8.365-56.054-4.309-56.054-4.309l9.313-28.615-.515-6.422c-.362-4.9-1.78-12.045-2.041-19.376-.267-7.536 3.258-16.532 3.759-22.239.313-3.576 10.415-5.115 10.415-5.115l-.345-9.1z" transform="translate(-669.131 -1153.365)" class="B C F"/></clipPath><clipPath id="D"><path d="M727.9 1203.46a149.6 149.6 0 0 0-2.375-20.033c-.869-4.335-2.82-14.322-8.615-14.392-7.793-.094-6.894 11.311-5.971 16.1l2.208 12.058c.7 4.059 1.378 8.132 1.825 12.227.173 1.586 1.008 4.886.064 6.371-1.709 2.691-16.042 35.06-16.042 35.06l7.147 1.618c22.14-29.576 23.019-28.985 21.759-49.009z" transform="translate(-698.992 -1169.034)" class="B C F"/></clipPath><path id="E" d="M17.653 48.453s-9.976 3.225-9.976 17.472l-.272 27.538c0 6.268-7.387 32.28-7.387 32.28l7.511 2.028c3.636-12.178 6.15-24.664 7.511-37.3 1.96-19.733 2.613-42.018 2.613-42.018z"/><path id="F" d="M40.049 36.908l.092 9.511s11.608 3.539 16.254 8.185-6.505 46.278-6.505 46.278 13.163 15.23 10.795 31.2c-23.153 8.365-56.054-4.309-56.054-4.309l9.313-28.615-.515-6.422c-.362-4.9-1.78-12.045-2.041-19.376-.267-7.536 3.258-16.532 3.759-22.239.313-3.576 10.415-5.115 10.415-5.115l-.345-9.1z"/><path id="G" d="M63.4 87.004a149.6 149.6 0 0 0-2.375-20.033c-.869-4.335-2.82-14.322-8.615-14.392-7.793-.094-6.894 11.311-5.971 16.1l2.208 12.058c.7 4.059 1.378 8.132 1.825 12.227.173 1.586 1.008 4.886.064 6.371-1.709 2.691-16.042 35.06-16.042 35.06l7.147 1.618c22.14-29.576 23.019-28.985 21.759-49.009z"/></defs><g transform="translate(.5 .5)" clip-path="url(#A)"><g class="C"><path d="M15.315 32.116s16.39 5.918 39.134-.695c0-21-9.832-24.462-22.025-24.462s-19.236 7.045-17.109 25.157z" class="B"/><use xlink:href="#E"/></g><g clip-path="url(#B)" transform="translate(.018 48.453)" class="E"><path d="M4.102 17.472l15.056 3.49s2.101-43.393-15.056-3.49z"/></g><use xlink:href="#E" class="B D"/><use xlink:href="#F" class="C"/><g clip-path="url(#C)" transform="translate(4.631 36.908)"><path d="M35.51 9.511s-2.819 5.6-8.787 5.6c-5.108 0-5.792-6.014-5.792-6.014L-1.877 12.17l9.769 48.657s16.45 15.166 40.349 1.582C59.269 29.422 72.645 13.419 35.51 9.511z" class="E"/><path d="M-11.838 107.193L3.334 54.612c16.942 3.872 33.51 7.042 49.73 0l-.237 11.729 12.523 41.262z" fill="#1c1c1b" stroke="#104573" stroke-linejoin="round" stroke-width=".6"/></g><use xlink:href="#F" class="B D"/><path d="M25.721 46.352s9.541.933 14.53-7.6c-10.526 0-14.53 1.487-14.53 1.487z" class="E"/><use xlink:href="#G" class="C"/><g clip-path="url(#D)" transform="translate(34.492 52.578)" class="E"><path d="M7.133 17.538l28.669-4.552S13.476-27.628 7.133 17.538z"/></g><g class="B"><use xlink:href="#G" class="D"/><g class="C"><path d="M46.662 25.611c-4.539 24.053-31.686 25.125-28.468-1.94-.518-21.628 32.206-17.863 28.468 1.94z"/><path d="M44.414 28.292s-.4.356-3.645-11.31c-14.417 5.328-25.618-.041-25.618-.041s2.291-10.7 19.093-10.7 17.797 18.133 10.17 22.051z"/></g></g><path d="M44.8 28.348S53 9.789 32.693 6.303c11.395 0 20.419 4.149 14.52 22.448" class="E"/><g class="B"><path d="M42.414 28.397c7.414-5.755 8.468 7.2.078 7.364" class="C"/><g class="D"><path d="M46.247 28.958c-1.33.892-2.076 2.432-1.951 4.029M26.09 37.823h6.589M19.88 28.707c.675.822 1.673 1.313 2.736 1.345a10.82 10.82 0 0 0 3.112-.379m5.641-.504c1.987 1.503 4.754 1.417 6.644-.208M33.4 24.505a6.14 6.14 0 0 0 4.222 2.614M24.8 24.398a10.43 10.43 0 0 1-1.845 1.711 3.51 3.51 0 0 1-2.383.641"/></g></g></g><circle cx="33.487" cy="33.487" r="32.987" class="B D"/></svg>