<svg xmlns="http://www.w3.org/2000/svg" xmlns:xlink="http://www.w3.org/1999/xlink" width="66.974" height="66.974" xmlns:v="https://vecta.io/nano"><style><![CDATA[.B{stroke:#a9bdc5}.C{fill:#fff}.D{fill:none}]]></style><defs><clipPath id="A"><circle cx="32.987" cy="32.987" r="32.987" stroke-width="1" class="B D"/></clipPath><clipPath id="B"><path d="M287.132 1153.365l.092 9.511s11.607 3.539 16.253 8.185-6.505 46.278-6.505 46.278 13.164 15.23 10.8 31.2c-23.153 8.365-56.054-4.309-56.054-4.309l9.313-28.615-.515-6.422c-.362-4.9-1.781-12.045-2.041-19.376-.268-7.536 3.258-16.532 3.758-22.239.314-3.576 10.416-5.115 10.416-5.115l-.345-9.1z" transform="translate(-251.714 -1153.365)" stroke-width="1" class="B C"/></clipPath><path id="C" d="M17.653 48.453s-9.976 3.225-9.976 17.472l-.273 27.538c0 6.268-7.386 32.28-7.386 32.28l7.511 2.028c3.636-12.178 6.15-24.664 7.511-37.3 1.963-19.733 2.613-42.018 2.613-42.018z"/><path id="D" d="M40.049 36.908l.092 9.511s11.607 3.539 16.253 8.185-6.505 46.278-6.505 46.278 13.164 15.23 10.8 31.2c-23.153 8.365-56.054-4.309-56.054-4.309l9.313-28.615-.515-6.422c-.362-4.9-1.781-12.045-2.041-19.376-.268-7.536 3.258-16.532 3.758-22.239.314-3.576 10.416-5.115 10.416-5.115l-.345-9.1z"/><path id="E" d="M63.398 87.004a149.76 149.76 0 0 0-2.375-20.033c-.869-4.335-2.82-14.322-8.615-14.392-7.793-.094-6.894 11.311-5.97 16.1l2.207 12.058c.7 4.059 1.378 8.132 1.825 12.227.173 1.586 1.007 4.886.064 6.371-1.709 2.691-16.042 35.06-16.042 35.06l7.147 1.618c22.142-29.576 23.021-28.985 21.759-49.009z"/></defs><g transform="translate(.5 .5)" clip-path="url(#A)"><use xlink:href="#C" class="C"/><use xlink:href="#C" class="B D"/><use xlink:href="#D" class="C"/><g clip-path="url(#B)" transform="translate(4.631 36.908)"><path d="M35.51 9.511s-2.819 5.6-8.787 5.6c-5.108 0-5.792-6.014-5.792-6.014L-1.877 12.17l9.769 48.657s16.45 15.166 40.349 1.582C59.27 29.422 72.645 13.419 35.51 9.511z" class="B C"/><path d="M-11.838 107.193L3.334 54.612c16.942 3.872 33.51 7.042 49.73 0l-.237 11.729 12.523 41.262z" fill="#1c1c1b" stroke="#104573" stroke-linejoin="round" stroke-width=".6"/></g><use xlink:href="#D" class="B D"/><path d="M25.544 46.351s9.54.933 14.53-7.6c-10.527 0-14.53 1.487-14.53 1.487z" fill="#a9bdc5"/><use xlink:href="#E" class="C"/><g class="B"><use xlink:href="#E" class="D"/><path d="M46.662 25.611c-4.539 24.053-31.686 25.125-28.468-1.94-.518-21.628 32.205-17.863 28.468 1.94z" class="C"/><path d="M32.635 36.491q-3.279 3.657-6.782.214z" class="D"/></g><path d="M44.417 28.292s-5.077 1.128-8.318-10.539c-8.833 3.537-18.623.018-18.623.018S17.445 6.237 34.247 6.237s17.794 18.137 10.17 22.055z" fill="#a9bdc5"/><g class="B"><path d="M42.417 28.397c7.415-5.755 8.469 7.2.079 7.364" class="C"/><path d="M45.845 28.957c-1.331.892-2.076 2.433-1.951 4.03" class="D"/></g></g><g class="B"><circle cx="33.487" cy="33.487" r="32.987" class="D"/><path d="M13.205 16.428l1.1 2.02 2.02 1.1-2.02 1.1-1.1 2.02-1.1-2.02-2.02-1.1 2.02-1.1zm38.668 20.185l1.891 3.457 3.457 1.891-3.457 1.891-1.891 3.457-1.891-3.457-3.457-1.891 3.457-1.891z" class="C"/></g></svg>