<svg xmlns="http://www.w3.org/2000/svg" xmlns:xlink="http://www.w3.org/1999/xlink" width="66.974" height="66.974" xmlns:v="https://vecta.io/nano"><style><![CDATA[.B{fill:#fff}.C{stroke:#a9bdc5}.D{stroke-width:1}]]></style><defs><clipPath id="A"><circle cx="32.987" cy="32.987" r="32.987" class="B C D"/></clipPath><clipPath id="B"><path d="M1202.71 1170.522s-6.408 2.072-6.408 11.222l-.175 17.688c0 4.026-4.744 20.733-4.744 20.733l4.824 1.3a133.84 133.84 0 0 0 4.824-23.958c1.261-12.672 1.679-26.985 1.679-26.985z" transform="translate(-1191.383 -1170.522)" class="B C D"/></clipPath><clipPath id="C"><path d="M1217.094 1163.107l.06 6.109s7.455 2.273 10.439 5.257-4.179 29.723-4.179 29.723 8.456 9.782 6.934 20.039c-14.871 5.372-36-2.768-36-2.768l5.981-18.379-.33-4.125c-.233-3.149-1.144-7.736-1.311-12.445-.172-4.84 2.092-10.618 2.414-14.283.2-2.3 6.689-3.286 6.689-3.286l-.221-5.842z" transform="translate(-1194.346 -1163.107)" class="B C D"/></clipPath><clipPath id="D"><path d="M1232.091 1195.282c-.219-4.318-.729-8.617-1.525-12.867-.559-2.784-1.812-9.2-5.534-9.243-5.005-.061-4.428 7.265-3.835 10.344l1.418 7.745c.447 2.606.885 5.222 1.172 7.852.111 1.019.647 3.138.042 4.093-1.1 1.728-10.3 22.518-10.3 22.518l4.59 1.039c14.218-18.999 14.781-18.62 13.972-31.481z" transform="translate(-1213.525 -1173.172)" class="B C D"/></clipPath><path id="E" d="M18.764 54.24s-6.408 2.072-6.408 11.222l-.175 17.688c0 4.026-4.744 20.733-4.744 20.733l4.824 1.3a133.84 133.84 0 0 0 4.824-23.958c1.261-12.672 1.679-26.985 1.679-26.985z"/><path id="F" d="M33.148 46.825l.06 6.109s7.455 2.273 10.439 5.257-4.179 29.723-4.179 29.723 8.456 9.782 6.934 20.039c-14.871 5.372-36-2.768-36-2.768l5.981-18.379-.33-4.125c-.233-3.149-1.144-7.736-1.311-12.445-.172-4.84 2.092-10.618 2.414-14.283.2-2.3 6.689-3.286 6.689-3.286l-.221-5.842z"/><path id="G" d="M48.145 79c-.219-4.318-.729-8.617-1.525-12.867-.559-2.784-1.812-9.2-5.534-9.243-5.005-.061-4.428 7.265-3.835 10.344l1.418 7.745c.447 2.606.885 5.222 1.172 7.852.111 1.019.647 3.138.042 4.093-1.1 1.728-10.3 22.518-10.3 22.518l4.59 1.039C48.391 91.482 48.954 91.861 48.145 79z"/></defs><circle cx="33.487" cy="33.487" r="32.987" class="B"/><g clip-path="url(#A)" transform="translate(.5 .5)"><use xlink:href="#E" class="B"/><g clip-path="url(#B)" transform="translate(7.437 54.24)" class="B C"><path d="M2.635 11.222l9.67 2.241s1.349-27.87-9.67-2.241z"/></g><use xlink:href="#E" fill="none" class="C"/><use xlink:href="#F" class="B"/><g clip-path="url(#C)" transform="translate(10.4 46.825)" class="B C"><path d="M22.808 6.109s-1.812 3.6-5.644 3.6c-3.281 0-3.721-3.863-3.721-3.863L-1.206 7.82l6.274 31.252s10.566 9.741 25.916 1.016c7.084-21.19 15.67-31.469-8.176-33.979z"/><path d="M-7.604 68.848l9.745-33.772c10.882 2.487 21.523 4.523 31.941 0l-.152 7.534 8.043 26.5z"/></g><use xlink:href="#F" fill="none" class="C"/><path d="M23.947 52.998c3.775.231 7.367-1.647 9.332-4.879-6.761 0-9.332.955-9.332.955z" fill="#a9bdc5"/><use xlink:href="#G" class="B"/><g clip-path="url(#D)" transform="translate(29.579 56.89)" class="B C"><path d="M4.581 11.263L22.995 8.34S8.655-17.746 4.581 11.263z"/></g><g class="C"><use xlink:href="#G" fill="none"/><g class="B"><path d="M37.425 39.569C34.51 55.018 14.887 58.248 19.14 38.323c-.332-13.893 20.685-11.473 18.285 1.246z"/><path d="M34.696 41.358c4.762-3.7 5.439 4.625.051 4.731"/><path d="M36.554 41.826a2.85 2.85 0 0 0-1.253 2.588"/></g></g></g><g class="C"><circle cx="33.487" cy="33.487" r="32.987" fill="none"/><path d="M49.619 19.095a2.9 2.9 0 0 0-3.155-3.078c-1.55.065-2.997.791-3.975 1.995l-2.49-2.273c1.732-2.089 4.292-3.315 7.005-3.357 4.038 0 6.915 2.211 6.915 6.4 0 4.918-6.017 6.666-5.475 11.646H44.53c-.803-5.643 5.089-7.838 5.089-11.333zm-5.97 17.12a2.88 2.88 0 0 1 5.757.16 2.88 2.88 0 0 1-2.88 2.84 2.89 2.89 0 0 1-2.877-2.996z" class="B"/></g></svg>