<svg xmlns="http://www.w3.org/2000/svg" xmlns:xlink="http://www.w3.org/1999/xlink" width="66.974" height="66.974" xmlns:v="https://vecta.io/nano"><style><![CDATA[.B{stroke:#a9bdc5}.C{fill:#fff}.D{fill:none}.E{fill:#a9bdc5}.F{stroke-width:1}]]></style><defs><clipPath id="A"><circle cx="32.987" cy="32.987" r="32.987" class="B D F"/></clipPath><clipPath id="B"><path d="M474.984 1164.91s-9.976 3.225-9.976 17.472l-.273 27.538c0 6.268-7.386 32.28-7.386 32.28l7.511 2.028a208.32 208.32 0 0 0 7.511-37.3c1.963-19.733 2.613-42.018 2.613-42.018z" transform="translate(-457.349 -1164.91)" class="B C F"/></clipPath><clipPath id="C"><path d="M497.38 1153.365l.092 9.511s11.607 3.539 16.253 8.185-6.5 46.278-6.5 46.278 13.164 15.23 10.8 31.2c-23.153 8.365-56.053-4.309-56.053-4.309l9.313-28.615-.515-6.422c-.363-4.9-1.781-12.045-2.041-19.376-.268-7.536 3.258-16.532 3.758-22.239.314-3.576 10.415-5.115 10.415-5.115l-.345-9.1z" transform="translate(-461.962 -1153.365)" class="B C F"/></clipPath><clipPath id="D"><path d="M520.729 1203.46a149.92 149.92 0 0 0-2.375-20.033c-.869-4.335-2.821-14.322-8.615-14.392-7.793-.094-6.894 11.311-5.971 16.1l2.207 12.058c.7 4.059 1.379 8.132 1.825 12.227.173 1.586 1.008 4.886.065 6.371-1.71 2.691-16.042 35.06-16.042 35.06l7.147 1.618c22.142-29.576 23.021-28.985 21.759-49.009z" transform="translate(-491.823 -1169.034)" class="B C F"/></clipPath><path id="E" d="M17.653 48.453s-9.976 3.225-9.976 17.472l-.273 27.538c0 6.268-7.386 32.28-7.386 32.28l7.511 2.028a208.32 208.32 0 0 0 7.511-37.3c1.963-19.733 2.613-42.018 2.613-42.018z"/><path id="F" d="M40.049 36.908l.092 9.511s11.607 3.539 16.253 8.185-6.5 46.278-6.5 46.278 13.164 15.23 10.8 31.2c-23.153 8.365-56.053-4.309-56.053-4.309l9.313-28.615-.515-6.422c-.363-4.9-1.781-12.045-2.041-19.376-.268-7.536 3.258-16.532 3.758-22.239.314-3.576 10.415-5.115 10.415-5.115l-.345-9.1z"/><path id="G" d="M63.398 87.004a149.92 149.92 0 0 0-2.375-20.033c-.869-4.335-2.821-14.322-8.615-14.392-7.793-.094-6.894 11.311-5.971 16.1l2.207 12.058c.7 4.059 1.379 8.132 1.825 12.227.173 1.586 1.008 4.886.065 6.371-1.71 2.691-16.042 35.06-16.042 35.06l7.147 1.618c22.142-29.576 23.021-28.985 21.759-49.009z"/></defs><g transform="translate(.5 .5)" clip-path="url(#A)"><path d="M15.314 55.6s16.391 5.918 39.134-.695c1.8-26.06-4.152-53.626-22.024-47.946-11.62 3.692-21.575 25.203-17.11 48.641z" class="E"/><use xlink:href="#E" class="C"/><g clip-path="url(#B)" transform="translate(.018 48.453)" class="E"><path d="M4.102 17.472l15.056 3.49s2.1-43.393-15.056-3.49z"/></g><use xlink:href="#E" class="B D"/><use xlink:href="#F" class="C"/><g clip-path="url(#C)" transform="translate(4.631 36.908)"><path d="M35.51 9.511s-2.82 5.6-8.787 5.6c-5.108 0-5.793-6.014-5.793-6.014L-1.877 12.17l9.768 48.657s16.451 15.166 40.35 1.582C59.269 29.422 72.644 13.419 35.51 9.511z" class="B C"/><path d="M-11.839 107.193L3.334 54.612c16.942 3.872 33.51 7.042 49.73 0l-.237 11.729 12.523 41.262z" fill="#1c1c1b" stroke="#104573" stroke-linejoin="round" stroke-width=".6"/></g><use xlink:href="#F" class="B D"/><path d="M25.543 46.351s9.541.933 14.53-7.6c-10.527 0-14.53 1.487-14.53 1.487z" class="E"/><use xlink:href="#G" class="C"/><g clip-path="url(#D)" transform="translate(34.492 52.578)" class="E"><path d="M7.132 17.538l28.669-4.552S13.477-27.628 7.132 17.538z"/></g><g class="B"><use xlink:href="#G" class="D"/><path d="M46.662 25.611c-4.539 24.053-31.686 25.125-28.468-1.94-.518-21.628 32.205-17.863 28.468 1.94z" class="C"/><path d="M25.909 38.48q3.277-3.657 6.782-.214" class="D"/></g><path d="M44.413 28.292s-5.076 1.128-8.317-10.539c-5.524 2.084-11.588 2.253-17.219.48 0 0-1.436-12 15.366-12s17.797 18.141 10.17 22.059z" class="E"/><g class="B"><path d="M42.413 28.397c7.414-5.755 8.468 7.2.079 7.364" class="C"/><path d="M45.845 28.957c-1.331.892-2.076 2.433-1.951 4.03" class="D"/></g></g><circle cx="33.487" cy="33.487" r="32.987" class="B D"/></svg>