<svg xmlns="http://www.w3.org/2000/svg" xmlns:xlink="http://www.w3.org/1999/xlink" width="66.974" height="66.974" xmlns:v="https://vecta.io/nano"><style><![CDATA[.B{stroke:#a9bdc5}.C{fill:#fff}.D{fill:none}.E{stroke-width:1}]]></style><defs><clipPath id="A"><circle cx="32.987" cy="32.987" r="32.987" class="B D E"/></clipPath><clipPath id="B"><path d="M992.932 1165.068s-9.976 3.225-9.976 17.472l-.273 27.539c0 6.268-7.386 32.28-7.386 32.28l7.511 2.028c3.636-12.178 6.15-24.664 7.511-37.3 1.963-19.734 2.613-42.019 2.613-42.019z" transform="translate(-975.297 -1165.068)" class="B C E"/></clipPath><clipPath id="C"><path d="M1015.328 1153.523l.092 9.511s11.607 3.54 16.253 8.186-6.505 46.277-6.505 46.277 13.164 15.23 10.8 31.2c-23.153 8.364-56.054-4.309-56.054-4.309l9.313-28.616-.515-6.421c-.362-4.9-1.781-12.046-2.041-19.377-.268-7.536 3.258-16.531 3.758-22.238.314-3.577 10.416-5.116 10.416-5.116l-.345-9.1z" transform="translate(-979.91 -1153.523)" class="B C E"/></clipPath><clipPath id="D"><path d="M1038.677 1203.618a149.78 149.78 0 0 0-2.375-20.033c-.869-4.335-2.82-14.321-8.615-14.391-7.793-.095-6.894 11.31-5.971 16.1l2.208 12.058c.7 4.058 1.378 8.131 1.825 12.226.173 1.586 1.007 4.886.064 6.372-1.709 2.69-16.042 35.06-16.042 35.06l7.147 1.617c22.142-29.576 23.021-28.985 21.759-49.009z" transform="translate(-1009.771 -1169.193)" class="B C E"/></clipPath><path id="E" d="M17.653 48.453s-9.976 3.225-9.976 17.472l-.273 27.539c0 6.268-7.386 32.28-7.386 32.28l7.511 2.028c3.636-12.178 6.15-24.664 7.511-37.3 1.963-19.734 2.613-42.019 2.613-42.019z"/><path id="F" d="M40.049 36.908l.092 9.511s11.607 3.54 16.253 8.186-6.505 46.277-6.505 46.277 13.164 15.23 10.8 31.2c-23.153 8.364-56.054-4.309-56.054-4.309l9.313-28.616-.515-6.421c-.362-4.9-1.781-12.046-2.041-19.377-.268-7.536 3.258-16.531 3.758-22.238.314-3.577 10.416-5.116 10.416-5.116l-.345-9.1z"/><path id="G" d="M63.398 87.003a149.78 149.78 0 0 0-2.375-20.033c-.869-4.335-2.82-14.321-8.615-14.391-7.793-.095-6.894 11.31-5.971 16.1l2.208 12.058c.7 4.058 1.378 8.131 1.825 12.226.173 1.586 1.007 4.886.064 6.372-1.709 2.69-16.042 35.06-16.042 35.06l7.147 1.617c22.142-29.576 23.021-28.985 21.759-49.009z"/></defs><g clip-path="url(#A)" transform="translate(.5 .5)"><use xlink:href="#E" class="C"/><g clip-path="url(#B)" transform="translate(.018 48.453)" class="B C"><path d="M4.103 17.472l15.056 3.49s2.099-43.393-15.056-3.49z"/></g><use xlink:href="#E" class="B D"/><use xlink:href="#F" class="C"/><g clip-path="url(#C)" transform="translate(4.631 36.908)"><path d="M35.51 9.511s-2.819 5.6-8.787 5.6c-5.108 0-5.792-6.014-5.792-6.014L-1.877 12.17l9.769 48.658s16.45 15.166 40.349 1.581C59.27 29.423 72.645 13.419 35.51 9.511z" class="B C"/><path d="M-11.838 107.193L3.334 54.612c16.942 3.872 33.51 7.042 49.73 0l-.237 11.729 12.523 41.263z" fill="#1c1c1b" stroke="#104573" stroke-linejoin="round" stroke-width=".6"/></g><use xlink:href="#F" class="B D"/><path d="M25.721 46.519s9.54.933 14.53-7.6c-10.527 0-14.53 1.487-14.53 1.487z" fill="#a9bdc5"/><use xlink:href="#G" class="C"/><g clip-path="url(#D)" transform="translate(34.492 52.578)" class="B C"><path d="M7.129 17.537l28.67-4.551s-22.323-40.615-28.67 4.551z"/></g><g class="B"><use xlink:href="#G" class="D"/><path d="M46.708 25.611c-4.539 24.053-35.09 29.083-28.468-1.94-.519-21.63 32.205-17.863 28.468 1.94z" class="C"/></g><path d="M44.459 28.292s-3.381-5.144-6.621-16.81c-7.7 7.7-17.9 4.314-17.9 4.314s-2.455-9.559 14.348-9.559 17.8 18.137 10.173 22.055z" fill="#a9bdc5"/><g class="B"><path d="M42.459 28.397c7.414-5.755 8.468 7.2.079 7.365" class="C"/><path d="M45.349 29.125c-1.331.892-2.077 2.433-1.952 4.03" class="D"/></g></g><g class="B D"><circle cx="33.487" cy="33.487" r="32.987"/><path d="M30.495 21.954c1.586 1.315 3.619 1.965 5.674 1.812m-11.532-1.665a9.67 9.67 0 0 1-4.851 1.513m15.508 3a16.31 16.31 0 0 1-2.569 1.006 8.88 8.88 0 0 1 3.495.515m-14.058-1.864a6.47 6.47 0 0 1 2.427 1.36 3.99 3.99 0 0 0-3.221.04m1.63 10.942l1.676-1.955.931 2.514 1.35-2.234 1.536 2 2.514-1.723 1.955 1.676 1.536-1.769"/></g></svg>