<svg xmlns="http://www.w3.org/2000/svg" xmlns:xlink="http://www.w3.org/1999/xlink" width="66.974" height="66.974" xmlns:v="https://vecta.io/nano"><style><![CDATA[.B{fill:none}.C{stroke:#a9bdc5}.D{fill:#a9bdc5}]]></style><defs><clipPath id="A"><circle cx="32.987" cy="32.987" r="32.987" stroke-width="1" class="B C"/></clipPath><clipPath id="B"><path d="M911.744 1155.523l.092 7.511s11.607 3.54 16.253 8.186-6.505 46.277-6.505 46.277 13.164 15.23 10.8 31.2c-23.153 8.364-56.053-4.309-56.053-4.309l9.313-28.616-.515-6.421c-.363-4.9-1.781-12.046-2.041-19.377-.268-7.536 3.258-16.531 3.758-22.238.314-3.577 10.415-5.116 10.415-5.116l-.345-7.1z" transform="translate(-876.326 -1155.523)" fill="#fff" stroke-width="1" class="C"/></clipPath><path id="C" d="M17.653 48.453s-9.976 3.225-9.976 17.472l-.273 27.539c0 6.268-7.386 32.28-7.386 32.28l7.511 2.028c3.636-12.178 6.15-24.664 7.511-37.3 1.965-19.734 2.613-42.019 2.613-42.019z"/><path id="D" d="M40.049 38.908l.092 7.511s11.607 3.54 16.253 8.186-6.505 46.277-6.505 46.277 13.164 15.23 10.8 31.2c-23.153 8.364-56.053-4.309-56.053-4.309l9.313-28.616-.515-6.421c-.363-4.9-1.781-12.046-2.041-19.377-.268-7.536 3.258-16.531 3.758-22.238.314-3.577 10.415-5.116 10.415-5.116l-.345-7.1z"/><path id="E" d="M63.398 87.003a149.96 149.96 0 0 0-2.375-20.033c-.869-4.335-2.821-14.321-8.615-14.391-7.793-.095-6.894 11.31-5.971 16.1l2.207 12.058c.7 4.058 1.379 8.131 1.825 12.226.173 1.586 1.008 4.886.065 6.372-1.71 2.69-16.042 35.06-16.042 35.06l7.147 1.617c22.142-29.576 23.021-28.985 21.759-49.009z"/></defs><g clip-path="url(#A)" transform="translate(.5 .5)"><use xlink:href="#C" fill="#fff"/><use xlink:href="#C" class="B C"/><use xlink:href="#D" fill="#fff"/><g clip-path="url(#B)" transform="translate(4.631 38.908)"><path d="M35.51 7.511s-2.82 5.6-8.787 5.6c-5.108 0-5.793-6.014-5.793-6.014L-1.877 10.17l9.768 48.658s16.451 15.166 40.35 1.581C59.269 27.423 72.644 11.419 35.51 7.511z" class="D"/><path d="M-11.839 105.193L3.334 52.612c16.942 3.872 33.51 7.042 49.73 0l-.237 11.729 12.522 41.263z" fill="#1c1c1b" stroke="#104573" stroke-linejoin="round" stroke-width=".6"/></g><use xlink:href="#D" class="B C"/><path d="M25.945 46.519s9.541.933 14.53-7.6c-10.527 0-14.53 1.487-14.53 1.487z" class="D"/><use xlink:href="#E" fill="#fff"/><g class="C"><use xlink:href="#E" class="B"/><g fill="#fff"><path d="M46.662 25.611c-4.54 24.053-31.686 25.126-28.469-1.94 0-26.186 36.993-19.603 28.469 1.94z"/><path d="M42.413 28.397c7.414-5.755 8.468 7.2.079 7.365"/></g><path d="M46.247 29.125c-1.331.892-2.076 2.433-1.951 4.03" class="B"/></g></g><g class="B C"><circle cx="33.487" cy="33.487" r="32.987"/><path d="M33.348 37.936a3.57 3.57 0 0 0-3.222-1.608 3.86 3.86 0 0 0-3.366 1.608"/></g><g class="D"><ellipse cx="24.317" cy="28.609" rx=".966" ry="1.099"/><ellipse cx="34.707" cy="28.56" rx="1.122" ry="1.166"/></g><path d="M34.222 22.685a4.28 4.28 0 0 0 3.809 2.009M24.49 23.191c-.071.465-.338.876-.733 1.13a5.5 5.5 0 0 1-2.636 1.119" class="B C"/></svg>