<svg xmlns="http://www.w3.org/2000/svg" width="269.387" height="74.074" viewBox="0 0 269.387 74.074"><defs><style>.a{fill:#fff;}</style></defs><g transform="translate(-1141.295 -1600.463)"><path class="a" d="M1269.215,1640.512c-6.85,0-7.38-5.2-7.38-6.8a6.768,6.768,0,0,1,4.869-6.8c4.505-1.656,5.469-1.847,8.569-2.822v-.8a7.324,7.324,0,0,0-.3-2.8c-.6-1.787-2.312-2.908-4.636-2.908a5.517,5.517,0,0,0-4.832,2.636l-.273.511-1.268-.755.126-.39c.618-1.966,3.1-5.309,8.524-5.309,3.525,0,5.82,1,7.243,3.16,1.059,1.714,1.143,4.083,1.143,6.559,0,2.175-.053,4.6-.1,6.554-.031,1.342-.057,2.505-.057,3.213,0,1.787.282,3.17,1.771,3.17a1.2,1.2,0,0,0,.826-.251l.408-.346.833.949-.277.356c-1.368,1.651-2.671,2.814-4.992,2.814a3.684,3.684,0,0,1-3.873-2.557A8.539,8.539,0,0,1,1269.215,1640.512Zm6.058-13.293a29.028,29.028,0,0,0-5.552,2.1,4.232,4.232,0,0,0-2.2,3.97c0,1.368.487,3.661,3.771,3.661a6.821,6.821,0,0,0,3.985-1.169Z"/><path class="a" d="M1227.36,1640.447a25.562,25.562,0,0,1-8.338-1.2l-.37-.12v-1.838c0-2.444-.052-3.406-.1-4.185l-.074-1.27,1.491,0,.032.532a5.052,5.052,0,0,0,1.142,3.048c1.075,1.216,3.551,1.949,5.849,1.949,4.819,0,7.06-1.823,7.06-5.738,0-3.355-2.073-4.749-4.935-6.683l-.458-.314-3.024-2.013c-4.2-2.785-6.342-5.015-6.342-9.47,0-2.18.823-9.293,11.418-9.293a51.275,51.275,0,0,1,7.84.593l.456.081-.016.448c0,.013-.036,1.394-.036,2.893,0,1.179-.021,2.207.021,3.268l.042.791h-1.284l-.032-.495a4.514,4.514,0,0,0-1.226-3.055c-1.02-1.022-3.273-1.5-5.66-1.5-5.614,0-6.269,2.888-6.269,5.049,0,2.98,1.528,3.989,4.864,6.192l3.828,2.537c3.263,2.175,6.337,4.23,6.337,9.638C1239.572,1639.456,1231.032,1640.447,1227.36,1640.447Z"/><path class="a" d="M1252.459,1640.607c-3.909,0-6.074-1.4-7.036-4.515a21.564,21.564,0,0,1-.4-5.152c0-4.039.037-7.28.078-11.033l.022-1.761h-3.336v-.993l.325-.133a10.42,10.42,0,0,0,2.833-1.609,18.187,18.187,0,0,0,4.142-5.115l.569-.965h1.1v5.681h8.608v3.134h-8.608v13.271c0,3.962.739,6.226,4.494,6.226a7.4,7.4,0,0,0,3.095-.687l.519-.267.442,1.027-.217.247C1259,1638.062,1257.053,1640.607,1252.459,1640.607Z"/><path class="a" d="M1286.84,1640.29v-1.2l.488-.036a3.429,3.429,0,0,0,2.24-1.048c.781-.87.828-3.027.828-7.333v-7.222c0-3.108-.047-4.439-.5-5.115a2.98,2.98,0,0,0-2.266-.867l-.21-.016-.482-.05v-1.446l.571.044.388.013a26.679,26.679,0,0,0,4.567-.482,8.336,8.336,0,0,0,2.665-.9l.289-.134.5.3v2.007a12.39,12.39,0,0,1,7.324-2.429c4.554,0,7.531,2.13,8.38,5.993a26.275,26.275,0,0,1,.33,4.523v7.374c0,4.172.163,5.343.944,6.074a3.574,3.574,0,0,0,1.954.708l.5.036v1.179l-1.253-.065c-1.813-.092-3.375-.176-5.016-.176a55.923,55.923,0,0,0-5.733.21l-.587.058v-1.169l.456-.063a3.7,3.7,0,0,0,2.1-.862c.818-.82.86-2.762.922-4.442.011-.278.021-.571.037-.875.047-.943.047-2.93.047-4.381a55.085,55.085,0,0,0-.2-5.779c-.378-3.267-2.081-4.787-5.367-4.787a9.757,9.757,0,0,0-4.73,1.064v13.27c0,4.172.171,5.343.951,6.074a3.578,3.578,0,0,0,1.955.708l.5.036v1.179l-1.345-.068c-1.75-.091-3.268-.173-4.861-.173a57.712,57.712,0,0,0-5.8.21Z"/><path class="a" d="M1318.357,1640.29v-1.227l.493-.036a3.385,3.385,0,0,0,2.243-1.041c.786-.872.822-3.008.822-7.314v-12.526h-3.291v-1.417l.33-.139a12.6,12.6,0,0,0,2.961-1.564,44.627,44.627,0,0,1,.378-6.7c1-5.215,4.407-7.862,10.141-7.862a10.267,10.267,0,0,1,6.169,1.927l.194.157.078.537-2.51,3.485-.6.005-.136-.314c-.959-2.144-2.353-2.982-4.256-2.982a3.739,3.739,0,0,0-2.547.909c-1.095,1.09-1.279,2.718-1.279,5.941v4.884h5.629v3.134h-5.629v14.015c0,3.336.11,4.96.545,5.613.708,1.064,2.857,1.145,3.491,1.145h.534v1.344l-.561-.031c-2.782-.144-4.853-.21-6.346-.21-1.877,0-4.009,0-6.268.21Z"/><path class="a" d="M1347.418,1640.714c-7.709,0-12.316-4.806-12.316-12.851,0-6.247,3.364-13.542,12.851-13.542,7.714,0,12.321,4.806,12.321,12.848C1360.274,1633.419,1356.91,1640.714,1347.418,1640.714Zm.32-23.474a5.3,5.3,0,0,0-3.575,1.148c-2.033,1.7-3.06,4.8-3.06,9.206,0,1.7.314,10.2,6.535,10.2a5.387,5.387,0,0,0,3.585-1.148c2.023-1.7,3.05-4.8,3.05-9.208C1354.273,1625.736,1353.959,1617.24,1347.738,1617.24Z"/><path class="a" d="M1362.711,1640.29v-1.279l.493-.042a3.325,3.325,0,0,0,2.248-1.043c.786-.87.818-2.948.818-7.254v-7.222c0-3.108-.042-4.439-.488-5.115a2.983,2.983,0,0,0-2.269-.867l-.2-.016-.493-.05v-1.53l.545.01.414.011a26.224,26.224,0,0,0,4.565-.477,12.32,12.32,0,0,0,2.71-.721l.293-.131.446.234v2.2a8.36,8.36,0,0,1,5.844-2.354,6.113,6.113,0,0,1,4.229,1.407l.173.16v.8l-2.128,3.9h-1.022l-.157-.246a4.513,4.513,0,0,0-4.072-2.033,4.787,4.787,0,0,0-2.757.8v12.736c0,3.336.11,4.911.545,5.561.713,1.058,2.851,1.142,3.485,1.142h.53v1.4l-.556-.031c-2.778-.144-4.853-.21-6.347-.21-1.876,0-4,0-6.263.21Z"/><path class="a" d="M1402.438,1640.641l-.676-.225v-2.128a11.99,11.99,0,0,1-7.06,2.368c-6.939,0-11.425-4.811-11.425-12.263a16.616,16.616,0,0,1,1.384-6.8c2.112-4.586,6.514-7.214,12.054-7.214a24.857,24.857,0,0,1,4.937.484v-5.372c0-3.149-.042-4.826-.493-5.505a2.914,2.914,0,0,0-2.217-.865l-.2-.016-.477-.047.11-1.134h.534a52.733,52.733,0,0,0,5.414-.708,15.986,15.986,0,0,0,2.495-.574l.252-.094.435.259-.021.247c-.168,2.083-.194,6.535-.194,9.871v20.6c0,3.079.042,4.984.487,5.6a2.962,2.962,0,0,0,2.222.926l.21.015.477.019v1.357h-.529a38.378,38.378,0,0,0-4.906.522,12.644,12.644,0,0,0-2.579.581ZM1396.6,1617.4c-4.922,0-7.327,3.37-7.327,10.3,0,2.808.8,9.341,8.134,9.341h.236a7.786,7.786,0,0,0,4-1.029v-16.923A7.013,7.013,0,0,0,1396.6,1617.4Z"/><path class="a" d="M1221.144,1651.3h4.12l3.8,10.364,1.383,3.988h.129l1.352-3.988,3.731-10.364h4.12v21.047h-3.507v-9.622c0-1.963.289-4.761.483-6.695h-.129l-1.706,4.8-3.637,9.56h-1.737l-3.638-9.56-1.674-4.8h-.129c.194,1.934.483,4.732.483,6.695v9.622h-3.444Z"/><path class="a" d="M1253.183,1651.3h12.681v3.152h-8.946v5.377h7.563v3.152h-7.562v6.213h9.269v3.152h-13Z"/><path class="a" d="M1278.557,1651.3h5.634c6.436,0,10.233,3.477,10.233,10.427,0,6.983-3.8,10.62-10.042,10.62h-5.825Zm5.375,18.021c4.247,0,6.663-2.411,6.663-7.594,0-5.15-2.416-7.4-6.663-7.4h-1.641v14.995Z"/><rect class="a" width="3.734" height="21.048" transform="translate(1306.732 1651.296)"/><path class="a" d="M1332.492,1650.911a8.3,8.3,0,0,1,5.985,2.67l-2.091,2.319a5.235,5.235,0,0,0-3.863-1.74c-3.475,0-5.922,2.9-5.922,7.628,0,4.793,2.253,7.691,5.794,7.691a5.634,5.634,0,0,0,4.407-2.091l2.094,2.285a8.454,8.454,0,0,1-6.567,3.056c-5.374,0-9.557-3.863-9.557-10.844C1322.772,1655,1327.083,1650.911,1332.492,1650.911Z"/><rect class="a" width="3.734" height="21.048" transform="translate(1350.46 1651.296)"/><path class="a" d="M1367.593,1651.3h3.831l6.565,11.842,2.156,4.475h.129c-.16-2.156-.482-4.826-.482-7.177v-9.14h3.571v21.047h-3.828l-6.567-11.842-2.157-4.475h-.128c.162,2.222.484,4.764.484,7.112v9.205h-3.574Z"/><path class="a" d="M1396.765,1651.3h12.681v3.152H1400.5v5.377h7.563v3.152H1400.5v6.213h9.269v3.152h-13Z"/><path class="a" d="M1181.018,1614.948l.307-.026-.144-.278-.313.03.151.274"/><path class="a" d="M1181.677,1613.525l.305.048-.071-.3-.305-.047.07.3"/><path class="a" d="M1184.632,1615.654l.566.293,1.258.331,0-2.075-2.466-1.457,0,1.45A2.118,2.118,0,0,1,1184.632,1615.654Z"/><path class="a" d="M1188.095,1649.7c.021-.419-.7-.92-1.7-1.428q0,1.2.01,2.469C1187.829,1650.3,1188.086,1649.9,1188.095,1649.7Z"/><path class="a" d="M1181.92,1643.138c.078.638,1.037,1.26,2.467,1.929q-.09-2.567-.207-4.586C1182.534,1641.709,1181.846,1642.517,1181.92,1643.138Z"/><path class="a" d="M1185.926,1653.788c0-.372-.005-.731-.006-1.095l-.024.005v-1.808l.013,0q-.008-1.474-.013-2.859c-.3-.139-.606-.278-.93-.414.044,1.646.083,3.435.113,5.4A1.536,1.536,0,0,0,1185.926,1653.788Z"/><path class="a" d="M1180.938,1615.639c-.908-.3-1.018-.755-1.094-1.056l-.2-.253-.258-.028a1.655,1.655,0,0,0-1.551.911c-.3.782-.1,2.734,4.623,7.016.373.34.7.64,1.047.962l-.009-6.957A10.372,10.372,0,0,1,1180.938,1615.639Z"/><path class="a" d="M1181.177,1615.115l.262-.142-.2-.44-.479.081-.017.2.218.245Z"/><path class="a" d="M1181.876,1613.741l.2-.081.066-.2-.143-.28-.477-.047-.071.189.141.29Z"/><path class="a" d="M1185.921,1657.042v-.912c.009-.691-.291-.8-.814-.922.007.632.014,1.274.019,1.934l0,.068.446.315a.376.376,0,0,0,.376-.32l0-.17Z"/><path class="a" d="M1186.435,1636.775c1.766-.813,2.74-1.7,2.9-2.7.224-1.372-1.024-2.9-2.711-4.522C1186.536,1631.54,1186.473,1633.911,1186.435,1636.775Z"/><path class="a" d="M1198.8,1604.1h-26.926v70.439c2-1.106,3.851-2.269,5.6-3.48C1209.876,1648.7,1201.36,1610.079,1198.8,1604.1Zm-6.86,30.322c-.272,1.959-2.4,3.414-5.531,4.984-.016,1.972-.021,4.133-.019,6.528l.522.212c2.915,1.182,3.405,2.523,3.3,3.435-.168,1.528-2.042,2.665-3.8,3.019,0,.493.006.98.009,1.489a1.9,1.9,0,0,1,.814,1.567,1.354,1.354,0,0,1-.794,1.179l0,.424a.89.89,0,0,1-.87.771.991.991,0,0,1-.9-.626l-.44.144a2.12,2.12,0,0,1-.708.209l-.3-.181.245-.629a2.908,2.908,0,0,1,1.151-.812c0-.348-.007-.71-.011-1.051l-.547-.236c-1-.639-1.426-1.315-1.272-2.017.193-.881,1.287-1.455,1.762-1.63-.024-1.352-.053-2.616-.086-3.8-.614-.251-1.237-.495-1.807-.718-2.648-1.032-3.159-2.533-3.127-3.61.068-2.324,2.593-4.575,4.472-5.266-.519-6.5-1.282-7.738-2.051-8.216l-.184-.115.867-2,.875.6v-1.36c-.553-.5-1.1-1.013-1.6-1.525-.7-.719-3.739-3.921-4.083-4.4a13.577,13.577,0,0,1-1.817-3.214,4.48,4.48,0,0,1,.3-3.989c.748-1.054,2.1-1.442,3.843-1.088a1.078,1.078,0,0,0,.858.041l.552-.088a1.824,1.824,0,0,1,1.09.423,8.929,8.929,0,0,1,.849.765l0-1.769,3.466,2.05.006,2.967a3.177,3.177,0,0,1,1.748-1.354l.248-.042.48,3.146-.109.09c-1.285,1.072-2.065,2.489-2.495,7.609C1190.527,1629.977,1192.218,1632.385,1191.94,1634.42Z"/><path class="a" d="M1188.9,1618.432l-.355-2.336a4.3,4.3,0,0,0-1.61,1.768l-.476-.11v-1.2l-.589.119.048.755-.231.071-.743-1.185-.57-.279-.379.174.01,7.44c.853.789,1.644,1.535,2.359,2.229C1186.8,1621,1187.594,1619.555,1188.9,1618.432Z"/><path class="a" d="M1184.007,1627.16v1.854l-1.159-.788-.455,1.051c.947.641,2.02,2.138,2.5,16.023.316.139.646.283,1,.427-.011-7.493.063-12.8.253-16.631q-.723-.67-1.495-1.357Z"/><path class="a" d="M1142.183,1634.27h28.976V1604.1h-26.926C1142.859,1607.3,1139.783,1619.86,1142.183,1634.27Zm4.422-10.55a.825.825,0,0,1-.777-.347c-.3-.379-.582-1.205-.083-1.466.307-.266,1.022.124,1.257.554a1,1,0,0,1,.06.906c.253.4.537.786.791,1.138a4.8,4.8,0,0,1,.443-2.742,2.923,2.923,0,0,1,.26,3.5,17.31,17.31,0,0,0,1.195,1.337,5.8,5.8,0,0,1,.267-2.672,3.53,3.53,0,0,1,.643,3.528,11.509,11.509,0,0,0,1.164.9,6.043,6.043,0,0,1-.116-2.7,3.5,3.5,0,0,1,1.153,3.249,7.12,7.12,0,0,0,1.354.494,3.931,3.931,0,0,1-.389-1.685,1.811,1.811,0,0,1,.975,1.732l.588.171-.028-1.8a2.979,2.979,0,0,1-2.373-2.188,5.235,5.235,0,0,1,2.373.962v-.953a4.81,4.81,0,0,1-4.008-3.531,10.93,10.93,0,0,1,4.008,1.737v-.836c-1.4-.1-2.718-1.4-3.3-3.239a8.325,8.325,0,0,1,3.3,1.5v-1.052c-1.309-.143-2.656-1.258-3.3-3.3a8.307,8.307,0,0,1,3.3,1.479v-1.181c-1.352-.093-2.631-.848-3.3-2.948a8.539,8.539,0,0,1,3.3,1.588v-1.315c-1.064-.121-2.07-.775-2.6-2.845a5.641,5.641,0,0,1,2.6,1.378v-1.364c-.82-.147-1.579-.472-1.989-2.074a3.633,3.633,0,0,1,1.994.836l-.015-.819a2.384,2.384,0,0,1-.406-2.062c.068-.665.315-1.157,1.032-1.192.714.035.962.527,1.035,1.192a2.379,2.379,0,0,1-.408,2.062l.013.841a5.074,5.074,0,0,1,2.028-.946c-.359,1.614-1.153,2.025-2.021,2.17l-.03,1.36a7.488,7.488,0,0,1,2.579-1.495c-.46,2.056-1.451,2.8-2.549,2.958v1.338a10.957,10.957,0,0,1,3.275-1.723,3.671,3.671,0,0,1-3.268,3.035l0,1.233a10.435,10.435,0,0,1,3.264-1.615,4.362,4.362,0,0,1-3.261,3.418v1.044a10.612,10.612,0,0,1,3.261-1.616c-.532,2.11-1.874,3.247-3.275,3.369v.853a13.894,13.894,0,0,1,4-1.89,4.794,4.794,0,0,1-4,3.647v.976a7.027,7.027,0,0,1,2.4-1.069,3.023,3.023,0,0,1-2.41,2.275l0,1.825.583-.063a2.015,2.015,0,0,1,1.137-1.81,5.129,5.129,0,0,1-.4,1.672,7.759,7.759,0,0,0,1.324-.409,3.561,3.561,0,0,1,1.132-3.266,8.188,8.188,0,0,1-.083,2.655,10.169,10.169,0,0,0,1.394-.991,3.368,3.368,0,0,1,.572-3.606,8.7,8.7,0,0,1,.315,2.748,15.892,15.892,0,0,0,1.22-1.43c-.7-.851-.723-1.673.111-3.33a7.159,7.159,0,0,1,.565,2.46,9.873,9.873,0,0,0,.927-1.414.931.931,0,0,1,.123-1.032c.308-.385.769-.715,1.183-.462.574.26.284.893.084,1.357a.8.8,0,0,1-.818.536,13,13,0,0,1-1.074,1.566,4.244,4.244,0,0,1,1.993,1.036c-1.237.511-1.976.39-2.588-.122a19.529,19.529,0,0,1-1.4,1.545,4.106,4.106,0,0,1,2.011,1.152c-1.347.558-2.344.383-2.943-.253a10.416,10.416,0,0,1-1.4,1.1,4.846,4.846,0,0,1,1.857,1.5c-1.532.352-2.544-.084-2.991-.945a7.256,7.256,0,0,1-1.339.427,3.149,3.149,0,0,1,.955,1.156c-1.052-.027-1.651-.274-1.806-.921l-.636.16v2.056l-1.294-.576v-1.506l-.563-.141c-.186.614-.647.851-1.657.87a1.807,1.807,0,0,1,.853-1.115,8.152,8.152,0,0,1-1.364-.558c-.4.958-1.309,1.355-2.926.984a3.941,3.941,0,0,1,1.883-1.537,6.977,6.977,0,0,1-1.206-.91c-.588.661-1.6.887-2.972.314a3.619,3.619,0,0,1,1.979-1.195,16.54,16.54,0,0,1-1.24-1.467,2.525,2.525,0,0,1-2.8.186,3.021,3.021,0,0,1,2.022-1.174C1147.081,1624.533,1146.861,1624.129,1146.6,1623.72Z"/><rect class="a" width="1.864" height="4.769" transform="translate(1157.756 1651.649)"/><rect class="a" width="4.769" height="1.866" transform="translate(1161.016 1654.501)"/><rect class="a" width="1.867" height="4.767" transform="translate(1163.972 1648.285)"/><rect class="a" width="1.447" height="1.452" transform="translate(1157.548 1645.224)"/><rect class="a" width="4.769" height="1.868" transform="translate(1157.701 1648.332)"/><rect class="a" width="1.451" height="1.457" transform="translate(1161.07 1651.649)"/><path class="a" d="M1165.557,1671.057c1.751,1.211,3.6,2.374,5.6,3.48V1634.99h-28.847A54.2,54.2,0,0,0,1165.557,1671.057Zm-1.585-30.805.005,6.424h3.516v11.4h-11.4v-6.431h-3.52v-11.4Z"/><rect class="a" width="1.864" height="4.769" transform="translate(1154.23 1645.431)"/><rect class="a" width="1.867" height="4.771" transform="translate(1160.603 1641.701)"/><rect class="a" width="4.768" height="1.87" transform="translate(1154.284 1641.701)"/></g></svg>