<svg xmlns="http://www.w3.org/2000/svg" width="111.615" height="111.611" viewBox="0 0 111.615 111.611">
  <g id="logo1" transform="translate(-969.859 -416.91)">
    <g id="Group_3" data-name="Group 3" transform="translate(969.858 416.905)">
      <path id="Path_1" data-name="Path 1" d="M1061.483,519.355q-9.207,1.193-13.608,3.827a9.171,9.171,0,0,0-4.825,8.325,8.79,8.79,0,0,0,2.752,6.932,10,10,0,0,0,6.9,2.446,12.642,12.642,0,0,0,5.844-1.394c1.223-.626,3.21-1.939,4.373-2.727a.685.685,0,0,1,1.064.486l.08.662a2.45,2.45,0,0,0,4.882-.293v-17.8q0-6.183-2.719-9.888t-8.767-3.7a18.857,18.857,0,0,0-7.34,1.393q-2.05.859-3.714,1.755a2.2,2.2,0,0,0-.872,3.011h0a2.184,2.184,0,0,0,2.963.852,28.664,28.664,0,0,1,2.643-1.3,13.393,13.393,0,0,1,5.368-1.087,7.048,7.048,0,0,1,3.364.714,5.533,5.533,0,0,1,2.073,1.869A7.672,7.672,0,0,1,1063,516.08q.106.521.176,1.051a1.973,1.973,0,0,1-1.693,2.224Zm1.819,6.332v4.24a4.48,4.48,0,0,1-1.725,3.522,19.076,19.076,0,0,1-2.76,1.83,9.414,9.414,0,0,1-4.486,1.121,6.9,6.9,0,0,1-4.146-1.224,4.68,4.68,0,0,1-1.7-4.077,5.58,5.58,0,0,1,.781-2.889,6.841,6.841,0,0,1,2.514-2.345,18.4,18.4,0,0,1,4.554-1.766q1.774-.47,4.073-.86a2.481,2.481,0,0,1,2.893,2.448Z" transform="translate(-1010.493 -466.495)" fill="#fff"/>
      <path id="Path_2" data-name="Path 2" d="M988.641,447.455a2.789,2.789,0,0,0,3.833-.923,50.247,50.247,0,0,1,85.816.1,2.788,2.788,0,1,0,4.762-2.9,55.827,55.827,0,0,0-95.334-.11,2.787,2.787,0,0,0,.923,3.833Z" transform="translate(-979.546 -416.905)" fill="#fff"/>
      <path id="Path_3" data-name="Path 3" d="M995,509.115a14.471,14.471,0,0,0-5.268-2.209,31.942,31.942,0,0,0-6.83-.68h-8.519l-.022.043a4.041,4.041,0,0,0-2.844,2.891,49.388,49.388,0,0,0-1.656,13.142,55.693,55.693,0,0,0,20.06,42.857,2.788,2.788,0,1,0,3.573-4.28,50.16,50.16,0,0,1-16.256-25.216,2,2,0,0,1,1.926-2.524h4.01a24.679,24.679,0,0,0,6.694-.85,14.872,14.872,0,0,0,5.2-2.548,11.383,11.383,0,0,0,3.364-4.281,14.517,14.517,0,0,0,1.19-6.117,14.069,14.069,0,0,0-1.224-6.185,10.419,10.419,0,0,0-3.4-4.043Zm-3.841,17.194q-2.82,2.209-8.665,2.209h-4.833a1.993,1.993,0,0,1-1.988-1.832c-.11-1.363-.237-3.187-.237-4.384a50.52,50.52,0,0,1,.984-9.923,2,2,0,0,1,1.959-1.6h3.843q5.844,0,8.8,1.869t2.956,6.694q0,4.757-2.821,6.965Z" transform="translate(-969.858 -466.495)" fill="#fff"/>
      <g id="Group_2" data-name="Group 2" transform="translate(31.288 39.731)">
        <path id="Path_4" data-name="Path 4" d="M1121,540.07h0a2.786,2.786,0,0,0,2.786-2.786v-17.51a8.976,8.976,0,0,1,8.292-8.722,5.388,5.388,0,0,1,4.688,2.073q1.495,2.073,1.5,6.762v17.28a2.915,2.915,0,0,0,2.7,2.9,2.786,2.786,0,0,0,2.872-2.785v-16.79a9.606,9.606,0,0,1,5.26-8.671,6.9,6.9,0,0,1,3.031-.771,5.316,5.316,0,0,1,4.621,2.073c1,1.382,1.4,2.909,1.524,6.762v2.172c-.007.08-.012.161-.012.243a50.041,50.041,0,0,1-2.144,14.524,2.774,2.774,0,0,0,1.546,3.325h0a2.788,2.788,0,0,0,3.8-1.733,55.625,55.625,0,0,0,2.373-16.117,2.764,2.764,0,0,0-.021-.327v-2.836q0-6.387-2.481-9.65t-7.578-3.262a10.069,10.069,0,0,0-5.674,1.733,26.152,26.152,0,0,0-4.15,3.475,1,1,0,0,1-1.609-.259,9.123,9.123,0,0,0-2.6-3.284,9.474,9.474,0,0,0-5.947-1.665,10.238,10.238,0,0,0-5.539,1.6,41.1,41.1,0,0,0-4.012,3.168.629.629,0,0,1-1.038-.413l-.124-1.241a2.5,2.5,0,0,0-2.269-2.29,2.426,2.426,0,0,0-2.582,2.421v27.816A2.786,2.786,0,0,0,1121,540.07Z" transform="translate(-1083.51 -506.226)" fill="#fff"/>
        <path id="Path_5" data-name="Path 5" d="M1110.994,598.758a2.779,2.779,0,0,0-3.493,1.07,50.243,50.243,0,0,1-42.786,23.943c-5.821,0-15.19-1.521-20.469-3.928a2.857,2.857,0,0,0-3.692,1.125,2.788,2.788,0,0,0,1.262,3.9c5.85,2.7,16.4,4.484,22.9,4.484a55.823,55.823,0,0,0,47.534-26.6,2.782,2.782,0,0,0-1.256-3.992Z" transform="translate(-1040.198 -557.465)" fill="#fff"/>
      </g>
    </g>
  </g>
</svg>
